<svg width="40" height="40" viewBox="0 0 40 40" fill="none" xmlns="http://www.w3.org/2000/svg">
<path d="M26.6654 11.6667C26.6654 10.1167 26.6654 9.34174 26.495 8.7059C26.0327 6.98044 24.6849 5.63271 22.9595 5.17037C22.3236 5 21.5487 5 19.9987 5C18.4487 5 17.6738 5 17.0379 5.17037C15.3125 5.63271 13.9647 6.98044 13.5024 8.7059C13.332 9.34174 13.332 10.1167 13.332 11.6667M8.66537 35H31.332C33.1989 35 34.1323 35 34.8453 34.6367C35.4725 34.3171 35.9825 33.8072 36.3021 33.18C36.6654 32.4669 36.6654 31.5335 36.6654 29.6667V17C36.6654 15.1332 36.6654 14.1997 36.3021 13.4867C35.9825 12.8595 35.4725 12.3496 34.8453 12.03C34.1323 11.6667 33.1989 11.6667 31.332 11.6667H8.66536C6.79852 11.6667 5.8651 11.6667 5.15206 12.03C4.52486 12.3496 4.01492 12.8595 3.69534 13.4867C3.33203 14.1997 3.33203 15.1332 3.33203 17V29.6667C3.33203 31.5335 3.33203 32.4669 3.69534 33.18C4.01492 33.8072 4.52486 34.3171 5.15206 34.6367C5.8651 35 6.79852 35 8.66537 35Z" stroke="#181D27" stroke-width="2" stroke-linecap="round" stroke-linejoin="round"/>
</svg>
