<svg width="158" height="219" viewBox="0 0 158 219" fill="none" xmlns="http://www.w3.org/2000/svg">
<path d="M42.329 192.542C42.329 192.542 49.0668 199.481 47.9752 200.648C47.649 200.987 37.4042 204.45 28.4706 209.751C28.085 209.656 27.7091 209.526 27.3477 209.362C28.182 208.484 32.5798 204.858 38.3766 201.62C42.4419 199.362 42.329 192.542 42.329 192.542Z" fill="#221F1F"/>
<path d="M127.73 185.674C125.81 187.393 122.053 198.284 120.541 199.15C118.74 200.185 113.125 198.227 107.523 197.694C103.696 197.355 99.849 197.321 96.0171 197.594C90.9983 196.508 95.9669 186.552 95.9669 186.552C95.9669 186.552 98.2819 191.985 101.049 194.382C106.695 193.936 115.873 196.264 117.297 196.37C120.434 196.634 120.992 193.484 122.184 191.351C123.257 189.407 125.334 186.182 127.73 185.674Z" fill="#221F1F"/>
<path d="M40.3801 63.1566C39.9862 62.4805 39.8005 61.7032 39.8463 60.9221C39.8921 60.141 40.1672 59.3907 40.6373 58.7651C40.9133 58.3762 41.7979 58.4577 41.9422 58.853L42.1492 59.4301C42.2245 59.6246 42.3186 59.8065 42.4002 59.9885C42.5445 60.3586 42.7452 60.7099 42.9083 61.055C43.4222 62.4093 44.1934 63.6513 45.1794 64.7125C45.9209 65.4736 46.7811 66.1093 47.7264 66.5946C48.4148 66.954 49.156 67.2018 49.9222 67.3286C50.6156 67.5007 51.3487 67.3972 51.9674 67.04C52.1099 66.8959 52.2154 66.7193 52.2748 66.5256C52.2748 66.4503 52.3187 66.375 52.3438 66.2997L52.3814 66.0174V65.8731V65.7037V65.3649C52.3044 64.2156 52.0417 63.0864 51.6035 62.0211C51.2155 60.9772 50.6416 60.0122 49.9096 59.1729C49.32 58.4747 48.515 57.9923 47.6212 57.8015C46.7275 57.6108 45.7957 57.7224 44.9723 58.1189C44.1405 58.4779 43.3814 58.986 42.7327 59.6183C41.5029 60.7989 40.7447 62.3866 40.5996 64.0851C40.5082 64.9694 40.5548 65.8626 40.7377 66.7326C40.7764 66.9449 40.8288 67.1544 40.8945 67.3599C40.9407 67.5737 41.0036 67.7834 41.0827 67.9873C41.1643 68.1567 41.2145 68.3323 41.3023 68.508C41.3901 68.6837 41.4968 68.8342 41.5846 69.0036C41.6724 69.173 41.8857 69.4302 42.0551 69.631C42.2403 69.8226 42.4515 69.9874 42.6825 70.1203C43.1846 70.4758 43.7131 70.7925 44.2634 71.0676C44.4704 71.1806 44.7151 71.237 44.9472 71.3437C45.1794 71.4503 45.4554 71.4754 45.7126 71.557C46.2541 71.6605 46.8076 71.6859 47.3563 71.6323C48.3869 71.541 49.3642 71.1335 50.1543 70.4654C50.6639 70.0174 51.1226 69.5145 51.522 68.966C52.4679 67.7023 53.1117 66.2386 53.404 64.6874C53.7199 63.0803 53.7028 61.4256 53.3538 59.8254L53.1468 59.1541C53.0647 58.939 53.016 58.7126 53.0025 58.4828C52.8568 57.4555 52.3761 56.505 51.6349 55.7789C50.6659 54.6814 49.5051 53.7694 48.2095 53.0875C47.8833 52.9119 47.5821 52.7048 47.2371 52.5229C46.911 52.3144 46.5738 52.1238 46.227 51.952C45.5997 51.6258 46.0702 51.1804 46.34 51.1929C47.1054 51.1929 46.5909 50.8102 46.5721 50.5655C46.5721 50.484 46.5721 50.3773 46.616 50.3271C47.1678 50.3502 47.7151 50.4365 48.2471 50.5844C49.4661 50.8837 50.6379 51.3503 51.729 51.9708C52.9105 52.6657 53.9701 53.5494 54.8658 54.5869C55.4051 55.1943 55.8667 55.8666 56.2397 56.5882C56.6533 57.3893 56.9854 58.23 57.2309 59.0976C58.3019 62.9521 57.8993 67.0672 56.1017 70.641C55.5277 71.7582 54.7991 72.7889 53.9373 73.7025C53.7561 73.8898 53.5655 74.0678 53.3664 74.2358C53.1531 74.3989 52.9398 74.5495 52.739 74.7C52.2969 75.0043 51.8263 75.2648 51.3337 75.478C51.1025 75.6035 50.8636 75.7146 50.6186 75.8105L49.8908 76.099C49.6148 76.2057 49.2635 76.2684 48.9372 76.3625C47.2561 76.7359 45.5089 76.6907 43.8494 76.2308C42.2053 75.78 40.6846 74.9628 39.4014 73.8406C39.1475 73.6339 38.9104 73.4073 38.6925 73.163C38.4854 72.9434 38.2972 72.7552 38.1592 72.5733C37.8832 72.2094 37.7075 71.9459 37.6699 71.9146C37.4526 71.6003 37.2576 71.2712 37.0864 70.9296C36.8959 70.5934 36.7363 70.2407 36.6096 69.8756L36.4026 69.3298C36.3399 69.1479 36.3022 68.9973 36.2583 68.828C36.1705 68.4955 36.0764 68.2006 36.0074 67.8367C35.7158 66.4759 35.6966 65.0708 35.9509 63.7024C36.0136 63.439 36.045 63.1629 36.0827 62.8869C36.1203 62.6108 36.1768 62.3348 36.2269 62.0588C36.464 60.8747 36.8719 59.7315 37.4378 58.6648C38.0252 57.5922 38.7719 56.615 39.6523 55.7663C41.4686 53.9767 43.8864 52.9278 46.4341 52.824C47.7845 52.7833 49.1267 53.0471 50.3613 53.5957C51.5522 54.1342 52.6198 54.9114 53.4981 55.8793C53.8076 56.2389 54.0847 56.6252 54.3262 57.0336L54.7591 57.7425C54.8783 57.9809 54.9975 58.2193 55.1355 58.4514C55.7895 59.637 56.2871 60.9022 56.6161 62.2156C57.0156 63.6107 57.1476 65.0688 57.0051 66.513C56.9619 66.926 56.8778 67.3337 56.7541 67.7301C56.6914 67.9371 56.6286 68.1379 56.5471 68.3574C56.4655 68.577 56.3526 68.7715 56.246 68.9848C55.7899 69.8245 55.1215 70.5297 54.3074 71.03C53.5432 71.4951 52.6869 71.7884 51.798 71.8895C51.0075 71.9875 50.2073 71.9748 49.4203 71.8518C49.2446 71.8205 48.9937 71.7703 48.6863 71.695C48.3789 71.6197 48.0589 71.488 47.6574 71.3374C46.8271 70.9873 46.0363 70.5499 45.2986 70.0325C44.0975 69.1537 43.0138 68.1248 42.0739 66.971C41.892 66.7341 41.7304 66.4822 41.5909 66.2181C41.4277 65.8731 41.2395 65.4841 41.089 65.0889C40.7627 64.2608 40.5683 63.4578 40.3801 63.1566Z" fill="#221F1F"/>
<path d="M22.8571 96.626C22.8571 96.626 22.9825 97.0589 23.1582 97.68C23.3339 98.3011 23.5346 99.148 23.7228 100.007C24.1118 101.726 24.3502 103.583 24.1181 103.947C24.0706 103.998 24.0073 104.03 23.9387 104.039C23.8702 104.048 23.8006 104.034 23.7416 103.997C23.5221 103.74 22.9198 102.065 22.2611 100.459L20.9687 97.2847C20.8683 96.9962 22.7567 96.3312 22.8571 96.626Z" fill="#232020"/>
<path d="M59.8285 45.9045C59.8018 45.9761 59.7507 46.0361 59.6842 46.0739C59.6175 46.1207 59.5396 46.1488 59.4584 46.1554C59.1914 46.1543 58.9257 46.1185 58.6679 46.0488C58.4546 46.0049 57.9778 45.6598 57.9966 45.5093C58.0298 45.2057 58.0972 44.9069 58.1974 44.6184C58.2991 44.4643 58.4191 44.3231 58.555 44.1981C58.6616 44.0914 58.7871 43.9597 58.9314 43.8279L59.427 43.4704L59.7031 43.2821L59.9916 43.1379L60.5688 42.8618L61.5161 42.5607C62.3671 42.3728 63.2454 42.343 64.1071 42.4728C65.6757 42.7195 67.2161 43.1209 68.7056 43.6711C69.0159 43.7834 69.316 43.9219 69.6028 44.0852C70.5365 44.6188 71.5485 45.002 72.6015 45.2207C72.7696 45.2843 72.9515 45.3016 73.1285 45.2709C73.7001 45.3102 74.2683 45.3899 74.8287 45.5093C75.6066 45.6347 76.4096 45.7539 76.5915 45.8041C77.5052 46.0662 78.4331 46.2757 79.3708 46.4315C79.5025 46.4315 79.6531 46.4315 79.7723 46.5381C80.024 46.7269 80.3375 46.8143 80.6505 46.7828C81.0716 46.8096 81.4906 46.862 81.9053 46.9396C82.127 47.0084 82.3382 47.1077 82.5326 47.2345C82.7146 47.3412 82.6142 47.705 82.5326 47.7427C82.3444 47.8619 82.495 48.0375 82.5326 48.1881C82.5388 48.2423 82.5388 48.297 82.5326 48.3512C81.6485 48.667 80.737 48.9001 79.8099 49.0476H79.1825H77.8714C76.9052 49.0476 75.8764 48.9974 75.6693 48.9848C75.4537 48.9671 75.2421 48.9163 75.042 48.8343C74.9918 48.8343 74.2264 48.759 73.461 48.6523C72.6956 48.5457 71.9303 48.4077 71.8738 48.3888C71.2603 48.2767 70.6731 48.0512 70.1423 47.7238C70.0404 47.6532 69.9251 47.604 69.8035 47.5795C68.7935 47.2784 67.9214 46.8455 67.018 46.4879C66.5642 46.3201 66.1013 46.1776 65.6316 46.0613C65.5497 46.0267 65.4701 45.9869 65.3932 45.9421C65.3003 45.8887 65.2013 45.8466 65.0983 45.8167C64.0986 45.5065 63.0453 45.4082 62.0055 45.5281C61.8925 45.5281 61.6039 45.5281 61.2903 45.5281L60.8637 45.6034C60.7683 45.6202 60.6781 45.6588 60.6002 45.7163C60.55 45.7602 60.3806 45.7163 60.2112 45.7163C60.0418 45.7163 59.8599 45.8355 59.8285 45.9045Z" fill="#221F1F"/>
<path d="M58.0223 67.6171C58.2669 66.5467 58.6464 65.5117 59.1515 64.5368C59.1876 64.4761 59.2418 64.4282 59.3065 64.3998C59.3712 64.3714 59.4431 64.364 59.5123 64.3785C59.5814 64.393 59.6443 64.4287 59.6921 64.4808C59.7399 64.5328 59.7702 64.5984 59.7789 64.6685C59.8323 65.0594 59.8574 65.4535 59.8542 65.848V66.444L59.7851 67.0399C59.7851 67.1027 59.7475 67.2783 59.6848 67.5356C59.622 67.7928 59.5091 68.1253 59.3962 68.5268C59.0484 69.4979 58.6027 70.4312 58.0662 71.3123C57.4468 72.2972 56.7278 73.2159 55.9206 74.0538C55.2801 74.7092 54.5854 75.3094 53.8441 75.8481C51.7486 77.421 49.2383 78.3457 46.6232 78.5081C43.891 78.666 41.1905 77.8576 38.9945 76.2245C38.4583 75.8279 37.949 75.3962 37.47 74.9321C37.0069 74.4642 36.5712 73.9698 36.1651 73.4515C35.3738 72.4286 34.6826 71.3319 34.1011 70.1767C33.8564 69.6498 33.6368 69.1102 33.411 68.5707C33.1851 68.0312 33.0848 67.4415 32.9279 66.8831C32.5085 64.9027 32.5192 62.8552 32.9593 60.8793C33.4057 58.9258 34.2492 57.0851 35.4374 55.4714C35.8451 54.957 36.2529 54.4175 36.6921 53.9281C36.7736 53.8215 36.9556 53.6019 37.2253 53.3008C37.4951 52.9997 37.8527 52.6734 38.3295 52.2907C39.4078 51.4155 40.5798 50.6622 41.8239 50.0448C43.1059 49.4234 44.4676 48.9822 45.8703 48.7336C46.6983 48.586 47.5389 48.5209 48.3798 48.5391C50.1725 48.6018 51.9274 49.0716 53.5116 49.913C54.293 50.3427 55.0197 50.8651 55.6759 51.4689C56.3128 52.0777 56.8828 52.7528 57.3761 53.4827C57.6617 53.87 57.8978 54.2915 58.0787 54.7374C58.4112 55.7349 58.8316 56.676 59.1013 57.6735C59.4859 59.0439 59.709 60.4546 59.7663 61.8768C59.7663 62.2281 59.7663 62.5732 59.7663 62.9182C59.7663 63.2632 59.691 63.602 59.6597 63.9408C59.5969 64.5681 59.3084 64.2231 59.277 64.0098C59.1766 63.3824 59.0511 63.8969 58.9382 63.9533C58.8253 64.0098 58.8504 63.9973 58.819 63.9533C58.7876 63.9094 58.7563 63.4389 58.6622 62.6986C58.5436 61.7889 58.3761 60.8863 58.1603 59.9947C57.81 58.5506 57.2722 57.1586 56.5605 55.8541C56.2765 55.3362 55.9558 54.8393 55.6007 54.3673C54.8483 53.3768 53.892 52.5595 52.7964 51.9708C52.1986 51.6562 51.5672 51.41 50.9143 51.2368C50.3093 51.0871 49.6919 50.9926 49.0699 50.9545C48.2999 50.9181 47.5282 50.9623 46.7674 51.0862C46.1401 51.1991 45.5127 51.2807 44.9167 51.4375C44.436 51.5845 43.9646 51.7605 43.5052 51.9645C42.5778 52.388 41.6916 52.8962 40.8577 53.4827C39.6206 54.3829 38.5234 55.4611 37.6017 56.6823C36.56 58.0621 35.7739 59.6174 35.2805 61.2745C35.1989 61.6077 35.1339 61.9448 35.086 62.2846C34.8333 65.3135 35.6356 68.3367 37.3571 70.8417C38.1847 72.153 39.2483 73.2996 40.4939 74.2232C40.6938 74.3978 40.9032 74.5612 41.1212 74.7125C41.399 74.9135 41.6952 75.0879 42.0058 75.2332C43.6354 75.9944 45.4476 76.2772 47.2317 76.0488C49.0545 75.8069 50.7939 75.1361 52.307 74.0915C53.1195 73.5628 53.8893 72.9712 54.6094 72.3223C55.3558 71.6474 56.0078 70.8751 56.548 70.0262C56.6529 69.8507 56.7703 69.683 56.8993 69.5243L57.3698 68.8216C57.6378 68.4496 57.8571 68.0448 58.0223 67.6171Z" fill="#221F1F"/>
<path d="M101.473 65.3527C101.721 64.2805 102.103 63.2435 102.608 62.2661C102.645 62.2054 102.699 62.1575 102.763 62.1291C102.828 62.1007 102.9 62.0933 102.969 62.1078C103.038 62.1223 103.101 62.1581 103.149 62.2101C103.197 62.2621 103.227 62.3278 103.236 62.3979C103.289 62.7887 103.314 63.1829 103.311 63.5773C103.311 63.7718 103.311 63.9788 103.311 64.2047L103.242 64.832C103.242 64.8948 103.211 65.0704 103.148 65.3276C103.085 65.5849 102.979 65.955 102.853 66.3251C102.504 67.299 102.057 68.2345 101.517 69.1169C100.398 70.8864 98.9417 72.4189 97.232 73.6276C95.0956 75.1646 92.5533 76.0375 89.9233 76.137C87.1919 76.2118 84.5158 75.3582 82.3323 73.7154C81.2712 72.9218 80.3217 71.9891 79.5092 70.9425C79.0763 70.4406 78.75 69.8823 78.3736 69.3553C77.9972 68.8283 77.7086 68.2574 77.42 67.6677C77.1597 67.145 76.9273 66.6089 76.7237 66.0616C75.838 63.594 75.6577 60.9284 76.203 58.3639C76.6428 56.3998 77.4844 54.5478 78.6748 52.9248C78.8755 52.6613 79.0637 52.3852 79.3021 52.1343C79.5405 51.8833 79.7287 51.6261 79.9295 51.3689C81.3945 49.7549 83.1868 48.4717 85.1867 47.6048C86.5002 47.046 87.882 46.6642 89.2959 46.4692C90.1271 46.354 90.9668 46.312 91.8054 46.3438C93.5926 46.4224 95.3423 46.8823 96.9372 47.6926C97.721 48.1221 98.4517 48.6422 99.1141 49.2422C99.7552 49.8504 100.329 50.5255 100.827 51.256C101.114 51.6565 101.352 52.0905 101.536 52.5483C101.874 53.5458 102.295 54.4869 102.571 55.4906C102.956 56.8652 103.179 58.2801 103.236 59.7065C103.236 60.0578 103.236 60.4029 103.236 60.7479C103.236 61.093 103.167 61.4317 103.129 61.7768C103.066 62.4041 102.778 62.0528 102.747 61.8458C102.646 61.2184 102.527 61.7329 102.408 61.7893C102.289 61.8458 102.32 61.8332 102.289 61.7893C102.257 61.7454 102.232 61.2749 102.132 60.5346C102.016 59.6224 101.849 58.7175 101.63 57.8244C101.279 56.3765 100.737 54.9819 100.017 53.6776C99.7409 53.1519 99.4175 52.6522 99.0514 52.1845C98.2971 51.1927 97.3358 50.3771 96.2345 49.7942C95.6369 49.484 95.0053 49.244 94.3524 49.079C93.7334 48.9385 93.104 48.8483 92.4704 48.8093C91.6875 48.7592 90.9016 48.7865 90.1241 48.8908C89.4967 48.9724 88.8693 49.054 88.242 49.1669C88.173 49.1669 87.6146 49.33 86.8053 49.6311C85.8602 49.9988 84.9629 50.4791 84.1328 51.0615C82.862 51.9068 81.7493 52.9685 80.8454 54.1983C79.8112 55.5838 79.0336 57.1434 78.5493 58.8031C78.4472 59.131 78.3861 59.4702 78.3674 59.8131C78.2276 61.2885 78.3594 62.7769 78.7563 64.2047L79.1076 65.2774C79.2457 65.635 79.415 65.9738 79.5719 66.3251C79.7224 66.6804 79.8985 67.0243 80.0989 67.354C80.2727 67.6888 80.4654 68.0135 80.676 68.3264C81.5061 69.6412 82.5691 70.7935 83.8128 71.7267C84.0387 71.8835 84.2394 72.078 84.4402 72.2286C84.7275 72.4219 85.0249 72.5999 85.331 72.7618C86.1416 73.1474 86.9973 73.4298 87.8781 73.6025C88.7681 73.7427 89.6715 73.7764 90.5695 73.7029C91.4789 73.5941 92.3732 73.3836 93.2357 73.0755C94.0956 72.741 94.9195 72.3206 95.695 71.8208C96.5158 71.3043 97.2941 70.7232 98.0225 70.083C98.7743 69.4106 99.4326 68.6404 99.9798 67.7932C100.087 67.6209 100.204 67.4554 100.331 67.2975C100.482 67.0905 100.632 66.8396 100.802 66.5949C101.083 66.2145 101.309 65.7963 101.473 65.3527Z" fill="#221F1F"/>
<path d="M88.4838 75.2272C88.6513 75.1263 88.8449 75.0773 89.0403 75.0862C89.2356 75.0951 89.424 75.1616 89.5816 75.2774C89.7197 75.3464 89.8765 75.6789 89.7887 75.7793C89.621 75.973 89.4385 76.1534 89.2429 76.3188C89.1043 76.395 88.9619 76.4641 88.8163 76.5258C88.5282 76.6626 88.2304 76.7779 87.9254 76.8709C87.3212 77.074 86.7025 77.2313 86.0747 77.3414C85.3113 77.4799 84.5344 77.5283 83.7598 77.4857C82.2199 77.4106 80.6895 77.2007 79.1863 76.8583C78.8561 76.7841 78.5312 76.6877 78.2139 76.5697C77.1223 76.1745 76.0307 75.8295 74.9391 75.4844C74.76 75.4135 74.5722 75.367 74.3807 75.3464C73.775 75.1946 73.1815 74.9975 72.6053 74.7567C71.8023 74.443 70.9993 74.0854 70.8236 73.985C69.9579 73.4831 69.0858 73.0001 68.2326 72.4856C68.1018 72.4284 67.9828 72.3476 67.8813 72.2472C67.6761 72.0136 67.4209 71.8292 67.1347 71.7077C66.7646 71.4944 66.4007 71.2748 66.0494 71.0239C65.8834 70.885 65.732 70.7294 65.5977 70.5596C65.466 70.4091 65.673 70.2585 65.7357 70.2711C65.9365 70.3024 65.8612 70.1268 65.8926 70.0389C65.9021 70.0054 65.9169 69.9736 65.9365 69.9448C66.3483 70.0496 66.7545 70.1752 67.1536 70.3212C67.7809 70.5283 68.4083 70.7353 68.5087 70.7918L69.0482 71.0364L70.2025 71.5383C71.0557 71.8959 71.9591 72.241 72.1473 72.2974C72.3413 72.3751 72.5282 72.4695 72.7057 72.5797C72.7872 72.6425 75.4222 73.5019 75.5288 73.5145C76.0783 73.6796 76.6133 73.8895 77.1286 74.1419C77.2312 74.1952 77.3411 74.2333 77.4548 74.2548C78.4021 74.5057 79.3369 74.8006 80.2842 75.0202C80.7673 75.1268 81.2566 75.2021 81.7459 75.2648C81.8352 75.2819 81.9232 75.305 82.0094 75.3338C82.1153 75.3688 82.2247 75.3919 82.3356 75.4028C83.4831 75.5646 84.6461 75.5856 85.7987 75.4656C86.4009 75.4566 87.0012 75.3957 87.5929 75.2836C87.756 75.2272 88.352 75.3025 88.4838 75.2272Z" fill="#221F1F"/>
<path d="M28.8141 67.0711C28.8253 67.2586 28.7865 67.4457 28.7016 67.6132C28.6167 67.7808 28.4889 67.9228 28.3311 68.0247C28.2307 68.1062 27.9358 68.0686 27.9045 67.9494C27.8358 67.7238 27.7855 67.493 27.7539 67.2593C27.7911 66.2211 27.8917 65.1861 28.055 64.1602C28.1624 63.436 28.3239 62.7209 28.5381 62.0209C28.9497 60.5848 29.4741 59.1835 30.1065 57.8301C30.2489 57.5275 30.4103 57.2341 30.5896 56.9518C31.2169 55.9857 31.8443 55.0195 32.5407 54.1036C32.6652 53.954 32.7805 53.7968 32.8857 53.6331C33.2784 53.1202 33.736 52.6605 34.2471 52.2654C34.7647 51.8186 35.3383 51.4411 35.9535 51.1425C36.9194 50.715 37.9542 50.4643 39.0087 50.4022C39.1561 50.377 39.3067 50.377 39.4542 50.4022C39.7626 50.4744 40.0784 50.5102 40.3952 50.5088C40.8198 50.5393 41.2402 50.6128 41.6499 50.7284C41.8517 50.8015 42.0469 50.8918 42.2333 50.9982C42.4027 51.086 42.2334 51.2491 42.1894 51.2554C41.995 51.2554 42.1204 51.3871 42.1204 51.4687C42.1268 51.4934 42.1268 51.5193 42.1204 51.544C41.9954 51.5593 41.869 51.5593 41.744 51.544C41.4703 51.5279 41.1959 51.5279 40.9222 51.544C40.6409 51.5474 40.3602 51.5683 40.0815 51.6067C39.8431 51.6067 39.6674 51.6569 39.6047 51.6632L39.0777 51.7259C38.7045 51.7891 38.3373 51.8835 37.9799 52.0082C37.3814 52.2049 36.815 52.4881 36.2985 52.8489C36.148 52.9618 35.966 53.0245 35.8092 53.1312C35.4462 53.4062 35.1063 53.7105 34.7929 54.0409C34.4729 54.3777 34.1713 54.7317 33.8895 55.1011C33.5382 55.5089 33.2621 55.9731 32.8732 56.3558C32.7999 56.4379 32.7367 56.5285 32.6849 56.6256C32.2082 57.4349 31.7376 58.263 31.3236 59.135C31.1166 59.5742 30.9472 60.0384 30.7715 60.4964C30.7401 60.5779 30.6962 60.6532 30.6586 60.7348C30.6083 60.8344 30.5643 60.9371 30.5268 61.0422C30.1224 62.1367 29.8036 63.2609 29.5733 64.4048C29.5168 64.6683 29.1404 65.9042 29.1153 66.2179C29.0839 66.3998 28.7953 66.9331 28.8141 67.0711Z" fill="#221F1F"/>
<path d="M29.1148 54.2787C29.2905 54.0403 29.5916 54.0215 29.9241 54.1846C29.9833 54.231 30.0314 54.29 30.0651 54.3573C30.0987 54.4245 30.117 54.4984 30.1186 54.5736C30.0508 54.7136 29.9755 54.8497 29.8928 54.9814C29.8928 55.019 29.5979 55.27 29.3156 55.6087C29.0333 55.9475 28.7572 56.2988 28.613 56.4808C28.362 56.8697 28.0797 57.2148 27.8288 57.5975C27.5778 57.9801 27.3394 58.3942 27.0885 58.7894C26.8375 59.1847 26.6619 59.6176 26.4611 60.0442C26.3865 60.2393 26.2963 60.4281 26.1913 60.6088C26.0141 60.9266 25.8731 61.2633 25.771 61.6126C25.6442 61.9526 25.5477 62.3032 25.4824 62.6602C25.4482 62.7783 25.4355 62.9015 25.4448 63.0241C25.4448 63.1308 25.3319 63.6515 25.2691 64.2035C25.2064 64.7556 25.106 65.3014 25.0747 65.4583C24.9241 66.0856 24.8425 66.713 24.7233 67.3403C24.7233 67.4344 24.7233 67.5348 24.6731 67.6164C24.5812 67.8008 24.5421 68.0071 24.5602 68.2124C24.5602 68.4947 24.5288 68.7707 24.4912 69.053C24.4601 69.1964 24.4116 69.3354 24.3469 69.4671C24.2967 69.5988 24.1085 69.5361 24.0897 69.4671C24.0709 69.3981 23.9454 69.4671 23.8638 69.4671C23.837 69.4733 23.8091 69.4733 23.7823 69.4671C23.6178 68.8612 23.4942 68.245 23.4121 67.6227C23.4043 67.4847 23.4043 67.3465 23.4121 67.2086C23.4121 66.9702 23.4121 66.6502 23.4121 66.324C23.4121 65.9978 23.4121 65.6967 23.4121 65.3955C23.4121 65.0944 23.4498 64.9187 23.4561 64.8497C23.4717 64.7025 23.5033 64.5573 23.5502 64.4169C23.5502 64.3855 23.5941 63.8773 23.6631 63.3692L23.845 62.3089C23.9081 61.9 24.0419 61.5052 24.2403 61.142C24.2787 61.0684 24.3082 60.9905 24.3281 60.9099L24.4787 60.4017L24.6857 59.9061C24.83 59.5862 24.9617 59.2788 25.1311 58.94C25.3005 58.6012 25.4511 58.3126 25.6142 57.9613C25.6504 57.9064 25.6902 57.854 25.7334 57.8045C25.7836 57.7355 25.84 57.6727 25.8839 57.6037C26.0915 57.226 26.3286 56.8652 26.5929 56.5247C26.8375 56.1671 27.1261 55.8408 27.3833 55.4895C27.5025 55.3201 28.2742 54.7304 28.4436 54.5736C28.613 54.4168 29.0458 54.3791 29.1148 54.2787Z" fill="#221F1F"/>
<path d="M18.6591 68.633C18.8034 66.4624 19.8762 64.6117 21.3442 63.8463C21.7896 63.5828 22.0092 63.9969 21.6892 64.4235C21.0775 65.2921 20.668 66.2868 20.491 67.3344C20.3384 68.0157 20.2398 68.7079 20.1961 69.4047C20.1249 70.852 20.2048 72.3027 20.4345 73.7335C20.5663 74.549 20.7294 75.3771 20.9239 76.2115C21.1183 77.0459 21.294 77.9242 21.4571 78.721C21.7771 80.3333 22.0029 81.7699 22.1597 82.7361C22.7207 86.4881 23.0351 90.2729 23.1008 94.0662C23.2076 101.757 22.74 109.444 21.7018 117.065C21.4885 118.759 21.225 120.44 20.9364 122.084C19.9159 127.818 18.8954 133.544 17.8749 139.261C17.7055 140.215 17.5047 141.187 17.3981 142.122C17.3165 142.893 16.4947 147.141 15.6415 151.444C14.7883 155.748 13.9853 160.083 13.8159 161.081C12.8328 166.009 12.1727 170.997 11.8397 176.012C11.7707 176.721 11.8397 177.486 11.7268 178.139C11.5613 179.668 11.534 181.209 11.6452 182.743C11.6829 183.822 11.7958 184.889 11.8648 185.962C11.9338 187.034 12.122 188.095 12.2349 189.161L12.649 192.298C12.7745 193.252 12.398 192.812 12.2977 192.486C12.0091 191.551 12.0467 192.354 11.9526 192.486C11.8585 192.618 11.8773 192.574 11.8397 192.536C11.8021 192.499 11.7707 192.323 11.6766 191.978C11.5825 191.633 11.4507 191.144 11.3002 190.554C11.1184 189.878 10.9719 189.193 10.861 188.502C10.7293 187.743 10.5348 186.934 10.4344 186.106C10.334 185.278 10.2211 184.431 10.1207 183.628C10.0204 182.825 9.99526 182.047 9.9388 181.357C9.82588 179.977 9.81961 178.923 9.82588 178.578V177.668C9.82588 177.128 9.82587 176.369 9.87606 175.466C9.93252 173.653 10.0894 171.256 10.334 168.816C10.8297 163.935 11.6766 158.897 11.8522 157.875C12.0279 156.852 12.2663 155.729 12.4796 154.669C12.5298 154.412 13.2262 150.698 13.9288 146.978C14.6314 143.257 15.2964 139.55 15.3466 139.255C15.9175 136.294 16.3881 133.301 17.0656 130.378C17.1973 129.801 17.2977 129.198 17.3918 128.602C18.2325 123.489 19.0669 118.383 19.6817 113.257C19.9891 110.641 20.2149 108.006 20.3843 105.377C20.422 104.907 20.4659 104.43 20.5035 103.96C20.5474 103.364 20.6039 102.768 20.6353 102.172C20.9572 95.9507 20.7284 89.7134 19.9515 83.5328C19.8573 82.8239 19.6252 80.7724 19.2927 78.7084C19.1233 77.6607 18.9351 76.6632 18.7657 75.7285C18.5964 74.7937 18.5148 74.0534 18.4583 73.6268C18.3745 72.7825 18.3598 71.9327 18.4144 71.086C18.4709 70.0697 18.634 69.0659 18.6591 68.633Z" fill="#221F1F"/>
<path d="M42.0702 199.307C41.8664 200.297 41.4906 201.244 40.9598 202.105C40.7197 202.494 40.4378 202.856 40.1191 203.184C39.8099 203.487 39.4593 203.745 39.0777 203.949C38.6072 204.194 38.419 203.761 38.7452 203.359C39.3664 202.461 39.8212 201.458 40.0878 200.398C40.3213 199.709 40.5182 199.007 40.6775 198.297C41.0097 196.838 41.2569 195.361 41.4178 193.874C41.7353 190.835 41.8986 187.782 41.9071 184.727C41.9406 180.963 41.9029 177.199 41.7942 173.434C41.5746 165.768 41.0539 158.095 40.4265 150.429C40.2885 148.729 40.1693 147.016 40.0564 145.316C39.68 139.475 39.1154 133.641 38.4692 127.807C38.3625 126.834 38.2684 125.837 38.1053 124.908C37.8418 123.377 36.1103 107.543 35.9597 105.46C35.7653 102.9 35.5582 100.341 35.3951 97.7687C35.3198 96.4763 35.2446 95.1902 35.2383 93.8602C35.2383 93.534 35.2383 93.189 35.2383 92.8439C35.2383 92.6494 35.2383 92.4863 35.2885 92.273L35.3512 91.9405C35.3708 91.8485 35.3981 91.7583 35.4328 91.6708C35.5327 91.3337 35.6521 91.0028 35.7904 90.6795C35.9158 90.3596 36.0538 90.0522 36.1919 89.7636C36.4741 89.0892 36.7946 88.4315 37.1517 87.7937C37.9235 86.456 38.5362 85.0327 38.9773 83.5527C39.668 81.5706 39.8829 79.4538 39.6047 77.3732C39.5545 77.1223 39.5106 76.8714 39.4667 76.6204C39.4152 76.3738 39.3482 76.1308 39.2659 75.8927C39.1844 75.648 39.1279 75.3971 39.0338 75.1587L38.7013 74.4623C38.2998 73.6154 38.7766 73.8914 38.9836 74.1737C39.5545 74.9893 39.2659 74.2302 39.3161 74.0859C39.3663 73.9416 39.3538 73.973 39.4039 73.9981C39.5276 74.1614 39.6427 74.331 39.749 74.5062C40.0212 74.9527 40.2522 75.4231 40.4391 75.9115C40.9828 77.4256 41.1966 79.0383 41.0664 80.6418C40.9333 82.2967 40.5918 83.9282 40.0501 85.4975C39.5984 86.8464 39.1844 87.8313 39.0463 88.1513C39.0463 88.2266 38.5005 89.3683 37.7916 90.9807C37.6257 91.3911 37.4812 91.8099 37.3587 92.2354L37.3086 92.3922V92.5051C37.3086 92.5616 37.3086 92.6996 37.3086 92.8063C37.3086 93.0258 37.3086 93.3082 37.3086 93.5654C37.3399 94.6507 37.4278 95.849 37.5344 97.0598C37.9673 101.922 38.6009 107.028 38.7201 108.064C38.8393 109.099 38.9271 110.247 39.0213 111.338C39.084 111.853 40.7967 126.508 40.8657 127.098C41.1668 130.14 41.5495 133.183 41.6812 136.226C41.6812 136.853 41.7754 137.449 41.8381 138.051C42.3776 143.29 42.7729 148.535 43.1304 153.786L43.6888 161.835C43.6888 162.318 43.7202 162.801 43.7327 163.29C43.7327 163.917 43.7641 164.513 43.8017 165.122C44.1447 171.483 44.2722 177.864 44.1844 184.263C44.1844 184.997 44.0652 187.123 43.8707 189.281C43.6763 191.44 43.3814 193.61 43.2434 194.463C43.1106 195.295 42.9305 196.118 42.7038 196.929C42.5658 197.425 42.4278 197.908 42.3086 198.322C42.1894 198.736 42.1141 199.093 42.0702 199.307Z" fill="#221F1F"/>
<path d="M80.6136 97.5047C79.7696 96.2862 79.1866 94.9064 78.9009 93.452C78.8194 93.0317 79.2397 92.8623 79.5283 93.245C80.118 93.9978 80.7077 94.7632 81.2661 95.5599C81.3539 95.6854 81.724 96.2751 82.2447 97.1597C82.502 97.5988 82.8031 98.1133 83.1105 98.6904C83.2611 98.9853 83.4179 99.2864 83.5685 99.6126C83.6587 99.8039 83.7363 100.001 83.8006 100.202C83.8571 100.391 83.9198 100.585 83.9637 100.767C84.3276 102.216 84.5534 103.678 84.7793 105.008C85.0051 106.338 85.162 107.517 85.2874 108.295C85.7454 111.351 86.103 114.412 86.4543 117.474C87.157 123.697 87.8889 129.912 88.6501 136.119C88.8195 137.493 88.97 138.879 89.1081 140.259C89.5786 144.99 90.2122 149.714 90.9901 154.412C91.1156 155.19 91.2285 155.993 91.4167 156.74C91.5673 157.367 92.1507 160.849 92.7969 164.375C93.4431 167.901 94.1583 171.47 94.3151 172.286C95.0364 176.351 95.9788 180.375 97.1382 184.337C97.3014 184.902 97.5398 185.479 97.6401 186.012C97.9177 187.239 98.3388 188.429 98.8949 189.557C99.5539 191.136 100.433 192.615 101.505 193.949C101.996 194.581 102.613 195.104 103.318 195.486C103.976 195.762 103.569 195.931 103.274 195.875C102.872 195.812 102.828 195.799 102.866 195.875C102.904 195.95 103.073 196.075 103.098 196.144C103.123 196.213 103.098 196.251 103.098 196.264C102.921 196.245 102.749 196.194 102.59 196.113C102.408 196.039 102.23 195.955 102.057 195.862C101.869 195.743 101.655 195.617 101.429 195.461C100.405 194.651 99.528 193.671 98.8384 192.562C97.7129 190.788 96.7612 188.91 95.9965 186.954C95.9965 186.885 95.6075 185.95 95.1432 184.532C94.679 183.114 94.0956 181.226 93.5623 179.281C92.5021 175.398 91.6175 171.295 91.4293 170.46C91.2411 169.626 91.0968 168.697 90.9525 167.813C90.9211 167.606 90.2938 164.551 89.7354 161.483C89.1771 158.415 88.6564 155.328 88.625 155.09C88.2674 152.631 87.8345 150.165 87.6589 147.693C87.6212 147.204 87.5459 146.702 87.4706 146.213C86.8433 141.978 86.3853 137.731 85.9148 133.484L85.1431 126.978C85.0992 126.589 85.0804 126.2 85.0428 125.805C84.9988 125.309 84.9675 124.814 84.911 124.324C84.2837 119.193 83.8257 114.048 83.123 108.941C82.9725 107.781 82.458 102.091 82.0628 100.911L81.9875 100.616C81.9572 100.488 81.9174 100.362 81.8683 100.24C81.7554 99.9263 81.6111 99.5562 81.4605 99.1923C81.2161 98.6116 80.9331 98.0478 80.6136 97.5047Z" fill="#221F1F"/>
<path d="M100.532 73.746C100.576 71.9455 100.532 70.5276 100.482 69.0471C100.482 68.5766 100.889 68.4197 101.159 68.9718C101.673 70.0059 101.998 71.1234 102.119 72.2717C102.174 73.0144 102.151 73.7609 102.05 74.4988C101.855 75.9498 101.512 77.3771 101.027 78.7586C100.519 80.2894 99.917 81.8452 99.4465 83.2317C99.0574 84.3519 98.7409 85.4961 98.4992 86.657L98.3172 87.8427C98.3172 88.0121 98.3172 88.169 98.3172 88.3446V88.8967C98.3935 89.6967 98.5214 90.4909 98.6999 91.2744C99.0575 92.893 99.5218 94.5241 100.03 96.1553C102.119 102.768 104.76 109.286 107.351 115.798C107.935 117.241 108.499 118.696 109.045 120.152C110.927 125.171 112.947 130.108 114.98 135.064C115.319 135.886 115.651 136.739 116.034 137.517C116.347 138.144 117.866 141.846 119.334 145.616C120.802 149.387 122.22 153.257 122.514 154.148C123.989 158.596 125.444 163.069 126.636 167.63C126.829 168.271 126.984 168.922 127.1 169.581C127.276 171.005 127.646 172.404 127.922 173.847C128.334 175.859 128.518 177.911 128.468 179.964C128.431 181.011 128.17 182.038 127.703 182.975C127.207 183.804 127.207 183.176 127.307 182.906C127.458 182.48 127.383 182.411 127.307 182.474C127.232 182.536 127.113 182.687 127.031 182.693C126.95 182.699 126.925 182.693 126.912 182.662C126.923 182.619 126.938 182.577 126.956 182.536C126.956 182.461 127 182.342 127.038 182.198C127.087 182.027 127.12 181.853 127.138 181.677C127.179 181.442 127.204 181.206 127.213 180.968C127.265 179.646 127.17 178.323 126.931 177.022C126.442 174.086 125.507 171.056 125.363 170.453C125.363 170.384 125.062 169.324 124.597 167.756C124.133 166.187 123.468 164.117 122.747 162.009C121.304 157.793 119.61 153.439 119.277 152.555C118.945 151.67 118.593 150.673 118.267 149.732C118.192 149.512 116.918 146.281 115.601 143.057C114.284 139.832 112.941 136.607 112.841 136.363C111.818 133.772 110.695 131.218 109.804 128.59C109.628 128.069 109.403 127.548 109.177 127.034C107.339 122.611 105.588 118.15 103.857 113.677L101.184 106.82C101.027 106.413 100.896 105.986 100.751 105.566C100.569 105.039 100.4 104.512 100.206 103.985C99.1955 101.256 98.2482 98.5016 97.4201 95.6847C97.0123 94.2732 96.6296 92.8553 96.3348 91.3748C96.1822 90.6226 96.0733 89.8622 96.0085 89.0975C95.9763 88.6798 95.9763 88.2604 96.0085 87.8427V87.5165L96.0525 87.2279L96.1466 86.657C96.2603 86.04 96.4111 85.4303 96.5983 84.8314C96.8492 84.0221 97.1817 83.0811 97.5518 82.1589C98.2984 80.3207 99.0512 78.5265 99.2645 77.8113C99.3963 77.4098 99.7476 76.5879 100.024 75.7598C100.265 75.1089 100.436 74.4337 100.532 73.746Z" fill="#221F1F"/>
<path d="M44.2852 105.968C48.9402 110.36 56.0419 116.401 65.2829 114.061C67.7358 120.303 49.2099 126.627 44.2852 105.968Z" fill="#221F1F"/>
<path d="M45.679 108C45.0202 107.55 44.5388 106.884 44.3176 106.118C44.3048 106.061 44.3082 106.002 44.3274 105.948C44.3465 105.893 44.3806 105.845 44.4258 105.809C44.471 105.773 44.5254 105.751 44.5829 105.744C44.6403 105.738 44.6984 105.747 44.7505 105.772C45.1771 106.036 45.5974 106.306 46.0052 106.582C46.1307 106.67 47.1094 107.498 48.2574 108.345C49.2715 109.11 50.3317 109.811 51.4319 110.446C52.7466 111.224 54.1256 111.887 55.5536 112.429C56.9801 112.974 58.4786 113.308 60.0016 113.42C60.3813 113.452 60.7625 113.463 61.1434 113.451C61.5224 113.465 61.902 113.45 62.2789 113.407L63.4081 113.301L63.9728 113.182C64.3617 113.113 64.7632 113.012 65.1397 112.962L65.629 112.918H65.8737H65.9929C66.0305 112.918 66.087 112.918 66.087 112.956L66.363 113.947C66.4383 114.286 66.4759 114.625 66.5324 114.957C66.5671 115.125 66.5671 115.298 66.5324 115.465C66.5324 115.653 66.501 115.722 66.4822 115.86C66.3208 116.634 65.979 117.358 65.4847 117.975C65.0259 118.533 64.4843 119.017 63.8787 119.411C62.7389 120.164 61.4585 120.679 60.1145 120.923L59.4432 121.036C59.2324 121.058 59.0229 121.091 58.8159 121.136C58.2918 121.205 57.762 121.22 57.2349 121.18C55.3187 121.072 53.4579 120.497 51.8146 119.505L51.3127 119.204L50.9112 118.922L50.4155 118.545C48.6738 117.048 47.2453 115.221 46.2122 113.169C46.0417 112.898 45.9107 112.605 45.8233 112.297C45.7369 111.966 45.6236 111.643 45.4845 111.331C45.3653 111.011 45.2336 110.704 45.1081 110.377C44.9284 109.939 44.7754 109.491 44.6501 109.035C44.5184 108.577 44.3615 108.131 44.2737 107.667C44.1859 107.203 44.142 106.745 44.0918 106.287C44.0416 105.829 44.3302 106.036 44.3929 106.168C44.5748 106.557 44.5937 106.205 44.6752 106.168C44.7568 106.13 44.7379 106.124 44.7693 106.168C44.8935 106.428 45.0003 106.696 45.0893 106.971L45.3841 107.786L45.7856 108.715C46.191 109.66 46.6454 110.584 47.147 111.481C47.147 111.481 47.3603 111.971 47.7744 112.579C48.2279 113.348 48.7441 114.078 49.3177 114.763C49.6232 115.136 49.9521 115.491 50.3026 115.823C50.6129 116.131 50.9419 116.42 51.2876 116.689C51.5524 116.902 51.8288 117.101 52.1157 117.285C52.2695 117.399 52.4333 117.5 52.605 117.586C52.9752 117.78 53.3202 118.044 53.7029 118.213C54.6298 118.63 55.6126 118.909 56.6201 119.041C57.6219 119.173 58.6383 119.145 59.6314 118.96C60.7511 118.769 61.8319 118.396 62.831 117.855C63.0228 117.752 63.2 117.623 63.358 117.473C63.6953 117.181 63.9872 116.841 64.2237 116.463C64.3215 116.287 64.4013 116.102 64.4621 115.911C64.495 115.82 64.5223 115.728 64.5437 115.635C64.5376 115.564 64.5376 115.492 64.5437 115.421C64.5468 115.388 64.5468 115.354 64.5437 115.321V115.271C64.5437 115.271 64.5437 115.271 64.506 115.271H64.3617H64.2739C63.9884 115.331 63.6992 115.373 63.4081 115.396C62.218 115.546 61.0162 115.579 59.8196 115.497C59.6063 115.497 59.393 115.434 59.1923 115.402C58.9915 115.371 58.6528 115.327 58.3893 115.264C55.634 114.751 53.0009 113.721 50.6288 112.228C50.0182 111.843 49.4297 111.424 48.866 110.973C48.1445 110.39 47.4293 109.8 47.147 109.568C46.8647 109.336 45.9738 108.2 45.679 108Z" fill="#221F1F"/>
<path d="M39.9645 122.197C38.9618 121.345 38.2058 120.241 37.775 118.998C37.6496 118.64 38.0197 118.37 38.3459 118.659C38.9733 119.192 39.6383 119.719 40.2657 120.277C40.4664 120.434 41.947 122.003 43.7977 123.515C45.4216 124.861 47.1864 126.029 49.0612 126.996C51.3441 128.148 53.7832 128.96 56.301 129.405L57.8631 129.631C58.3838 129.7 58.917 129.707 59.444 129.751L60.2345 129.801H61.025L64.2308 129.763L63.5658 133.703L63.1831 136.112L62.4365 140.924C62.2546 142.122 62.0538 143.32 61.8092 144.506C61.0689 148.59 60.4917 152.706 60.0024 156.834C59.9271 157.524 59.8267 158.22 59.8142 158.898C59.8142 159.45 59.4503 162.517 59.1303 165.635C58.8104 168.753 58.503 171.909 58.434 172.637C58.0074 176.225 57.7 179.833 57.5368 183.434C57.5421 183.943 57.5149 184.452 57.4553 184.958C57.3151 186.054 57.2877 187.162 57.3737 188.264C57.4244 189.783 57.5817 191.297 57.8443 192.794C57.9502 193.496 58.1419 194.183 58.4152 194.839C58.7163 195.36 58.3273 195.303 58.1391 195.115C57.6874 194.563 57.8756 195.115 57.8254 195.253C57.8254 195.291 57.7815 195.347 57.7313 195.335C57.6272 195.219 57.5347 195.092 57.4553 194.958C57.2546 194.634 57.0845 194.291 56.9471 193.936C56.556 192.89 56.2722 191.808 56.1002 190.705C55.8023 188.914 55.6241 187.105 55.5669 185.291C55.5669 185.228 55.5669 184.356 55.5669 183.057C55.5669 181.759 55.6109 180.046 55.6861 178.289C55.8242 174.782 56.1002 171.137 56.1504 170.397C56.2006 169.657 56.3135 168.841 56.4139 168.063C56.4139 167.881 56.6836 165.177 56.9346 162.467C57.1855 159.757 57.4992 157.047 57.5306 156.821C57.8192 154.669 58.0262 152.499 58.4842 150.378C58.5783 149.964 58.6285 149.525 58.6849 149.092C59.168 145.391 59.7765 141.708 60.3913 138.032L61.2885 132.429C61.2885 132.379 61.3324 132.323 61.3575 132.254L61.3951 132.153C61.3473 132.146 61.2987 132.146 61.2508 132.153H61.0187C60.7301 132.153 60.4415 132.153 60.1467 132.153L58.4026 132.04C57.8192 132.04 57.242 131.902 56.6586 131.821C56.0773 131.753 55.5011 131.649 54.9333 131.507C52.6368 131.024 50.4136 130.242 48.3209 129.18C47.2449 128.598 46.2132 127.937 45.2343 127.203C44.607 126.727 43.9796 126.237 43.484 125.804L42.3297 124.788C42.0787 124.556 41.5768 124.016 41.1063 123.471C40.6358 122.925 40.1841 122.398 39.9645 122.197Z" fill="#221F1F"/>
<path d="M40.436 136.42C44.2629 143.572 49.2943 149.595 57.9644 149.777C59.2631 149.777 57.3371 145.705 55.9443 145.68C49.401 145.555 45.6557 142.035 42.682 136.47C42.3746 135.893 41.4272 134.193 40.5489 134.394C39.6706 134.595 40.1537 135.893 40.436 136.42Z" fill="#221F1F"/>
<path d="M81.6113 185.918C82.0852 186.84 82.3831 187.842 82.4896 188.873C82.5088 188.947 82.5024 189.025 82.4715 189.095C82.4406 189.165 82.3871 189.222 82.3196 189.258C82.252 189.293 82.1745 189.305 82.0994 189.291C82.0244 189.277 81.9563 189.238 81.9062 189.181L81.5109 188.76L81.1784 188.327C80.9453 188.039 80.7355 187.733 80.5511 187.411C79.9426 186.192 79.4145 184.935 78.9701 183.647C78.2738 181.727 77.6088 179.569 77.2637 178.478C76.6364 176.357 76.0592 174.212 75.5573 172.06C74.5201 167.689 73.5539 163.298 72.6589 158.885C72.4581 157.913 72.2825 156.928 72.1256 155.949C71.5987 152.574 70.965 149.224 70.3063 145.874C70.1934 145.316 70.0993 144.738 69.9362 144.211C69.7731 143.684 69.3088 141.282 68.8508 138.747C68.6313 137.492 68.4054 136.194 68.2235 135.159C67.9976 133.785 67.8345 132.737 67.7655 132.342L67.5898 131.087C68.2988 131.031 69.0328 131.012 69.6852 130.918L70.1118 130.842C70.1934 130.842 70.2687 130.842 70.3502 130.805L70.8207 130.711C71.1344 130.642 71.4481 130.554 71.7618 130.479L72.6903 130.19C73.9406 129.766 75.1449 129.218 76.285 128.553C76.6185 128.322 76.9664 128.112 77.3265 127.925C77.7204 127.731 78.0963 127.502 78.4494 127.241C78.7882 126.959 79.1144 126.658 79.4532 126.363C79.9174 125.955 80.3252 125.491 80.7769 125.058C81.2286 124.625 81.5925 124.123 82.0316 123.665C82.4708 123.207 82.8347 122.737 83.2864 122.285C83.7381 121.834 83.7318 122.285 83.644 122.442C83.3867 122.963 83.7632 122.655 83.8886 122.668C84.0141 122.68 83.989 122.668 84.0015 122.724C83.9546 122.829 83.9022 122.932 83.8447 123.032L83.4056 123.797C83.3177 123.954 83.2174 124.123 83.1107 124.299L82.7343 124.845C82.4645 125.215 82.1948 125.635 81.8811 126.024C80.9476 127.226 79.8829 128.321 78.7066 129.287C78.3731 129.561 78.0232 129.814 77.659 130.046C77.3044 130.302 76.9357 130.539 76.5548 130.755C76.1093 131.033 75.6485 131.287 75.1746 131.514C74.1671 132.022 73.1176 132.441 72.0378 132.768C71.7743 132.85 71.5171 132.932 71.2662 132.988C71.1407 133.019 71.0215 133.057 70.896 133.082L70.7204 133.126H70.6137L70.4882 133.17C70.6263 133.854 70.6827 134.117 70.7015 134.224C70.827 134.851 70.896 135.479 70.9776 136.106C71.0089 136.407 72.6965 144.795 72.7656 145.127C73.0667 146.878 73.4745 148.609 73.6439 150.372C73.6862 150.722 73.7469 151.07 73.8258 151.413C74.4532 154.4 74.9739 157.398 75.551 160.391C75.8522 161.915 76.1784 163.434 76.5297 164.952C76.5862 165.228 76.6238 165.504 76.674 165.78C76.7242 166.056 76.7869 166.476 76.8685 166.821C77.6903 170.41 78.4432 174.017 79.4658 177.543C79.5912 177.944 79.8484 179.136 80.1558 180.328C80.4633 181.52 80.7832 182.719 80.9526 183.177C81.0869 183.633 81.1979 184.096 81.2851 184.563C81.3566 185.023 81.4657 185.476 81.6113 185.918Z" fill="#221F1F"/>
<path d="M73.8993 144.99H74.1566C74.298 144.97 74.4383 144.943 74.5769 144.908C74.7337 144.87 74.9157 144.839 75.1039 144.789L75.6748 144.563C75.8738 144.503 76.0637 144.417 76.2394 144.306L76.735 144.049C77.0236 143.873 77.2306 143.716 77.2996 143.672C77.7199 143.434 78.1225 143.165 78.5042 142.869L79.2946 142.304C79.6179 142.062 79.9279 141.802 80.2231 141.527C80.8584 140.952 81.4615 140.342 82.0299 139.701C82.675 138.982 83.2311 138.188 83.6861 137.336C83.7677 137.148 84.0939 136.602 84.4139 136.037C84.6624 135.598 84.8723 135.139 85.0412 134.663C85.0852 134.525 86.3461 134.833 86.296 134.971C86.252 135.259 86.2081 135.548 86.1391 135.83C86.0667 136.105 85.9723 136.373 85.8568 136.633C85.6749 137.028 85.2922 137.888 84.897 138.653C84.5017 139.419 84.119 140.065 84.0814 140.115L83.6987 140.899L83.2658 141.665C83.1336 141.905 82.987 142.138 82.8267 142.361C82.4063 142.988 81.9233 143.616 81.4402 144.243C80.982 144.829 80.4786 145.379 79.9345 145.887C79.5103 146.254 79.0594 146.59 78.5857 146.89C78.0956 147.193 77.5887 147.467 77.0675 147.712L76.139 148.114C75.8122 148.227 75.4791 148.321 75.1415 148.396C74.7267 148.463 74.3052 148.477 73.8868 148.44C73.5857 148.44 73.3849 147.813 73.2594 147.079C73.232 146.61 73.3069 146.141 73.479 145.705C73.6923 145.284 73.8303 144.983 73.8993 144.99Z" fill="#221F1F"/>
<path d="M8.8347 191.489C8.66895 191.127 8.5854 190.733 8.59003 190.335C8.61817 189.959 8.7138 189.591 8.87234 189.249C8.97271 189.03 9.41814 188.986 9.49969 189.199C9.71927 189.613 9.9012 190.027 10.1271 190.454C10.1271 190.517 10.2651 190.824 10.4219 191.269C10.5788 191.715 10.8109 192.286 11.0995 192.882C11.5901 193.947 12.1584 194.974 12.7996 195.956C13.5901 197.154 14.4119 198.34 15.309 199.488C16.2141 200.658 17.1838 201.776 18.2137 202.838C19.2488 203.898 20.3279 204.965 21.4258 205.899C21.9151 206.32 22.3982 206.721 22.8813 207.104C23.2924 207.432 23.7311 207.724 24.1924 207.976C24.4267 208.102 24.6588 208.214 24.8888 208.315L25.2464 208.459L25.5413 208.541C26.5049 208.694 27.4915 208.599 28.4083 208.265C28.7547 208.171 29.0894 208.039 29.4058 207.869C29.6567 207.738 31.1687 207.091 32.6869 206.288C34.2051 205.485 35.7547 204.638 36.1248 204.463C37.9504 203.591 39.7635 202.643 41.6644 201.815C41.9251 201.673 42.2035 201.565 42.4925 201.495C43.1228 201.356 43.7383 201.156 44.3307 200.899C45.1991 200.576 46.1099 200.379 47.0346 200.316C47.2699 200.305 47.5058 200.322 47.7372 200.366L48.0885 200.441L48.4273 200.561C48.8288 200.699 48.534 200.931 48.4273 200.943C48.0321 200.943 48.3269 201.15 48.3332 201.27C48.3489 201.308 48.3489 201.351 48.3332 201.389C48.3332 201.389 48.0446 201.389 47.618 201.452C47.0807 201.546 46.5549 201.697 46.0496 201.903C45.1737 202.273 44.3191 202.692 43.49 203.158C43.4586 203.158 43.0383 203.371 42.4172 203.697C41.7961 204.024 40.9868 204.475 40.1524 204.952L36.3883 207.192C36.0076 207.408 35.616 207.605 35.2151 207.782C35.121 207.825 33.7973 208.591 32.3983 209.294C31.4082 209.798 30.383 210.23 29.3305 210.586C28.6788 210.787 28.0115 210.934 27.3355 211.025C26.5933 211.127 25.8378 211.067 25.1209 210.849C24.8261 210.743 24.4936 210.667 24.2677 210.573C22.197 209.722 20.3319 208.439 18.7971 206.809C18.0192 206.05 17.235 205.31 16.4885 204.526C16.3505 204.381 16.2375 204.224 16.1121 204.074C15.9866 203.923 15.7984 203.691 15.6353 203.503C13.9046 201.58 12.3528 199.503 10.9991 197.298C10.6645 196.703 10.3629 196.089 10.0957 195.46C9.75691 194.645 9.46832 193.81 9.31148 193.49C9.15465 193.17 8.97899 191.803 8.8347 191.489Z" fill="#221F1F"/>
<path d="M4.76311 200.461C4.55702 200.142 4.43213 199.777 4.39933 199.399C4.36652 199.02 4.4268 198.64 4.5749 198.29C4.66273 198.052 5.15834 197.895 5.30891 198.077C5.61631 198.428 5.93627 198.786 6.17467 199.156C6.24995 199.275 6.74556 200.31 7.42938 201.414L7.91245 202.268L8.42688 203.064C8.76566 203.566 9.05424 204.018 9.26127 204.319C9.68787 204.871 10.0957 205.429 10.516 206C10.9363 206.571 11.3755 207.079 11.7707 207.625C13.5354 209.76 15.6714 211.558 18.0757 212.933C18.5901 213.265 19.1484 213.51 19.6691 213.83C21.5299 214.833 23.5742 215.45 25.6792 215.643C26.0297 215.677 26.3827 215.677 26.7332 215.643C27.0155 215.643 28.6153 215.643 30.1711 215.517C31.727 215.392 33.3456 215.041 33.7157 214.997C35.5605 214.715 37.3612 214.196 39.0734 213.453C39.3033 213.317 39.5531 213.218 39.8136 213.158C40.3793 213.026 40.9098 212.773 41.3695 212.418C42.0383 211.991 42.6795 211.521 43.2892 211.013C43.4406 210.886 43.5998 210.769 43.766 210.662L44.2365 210.31C44.2709 210.268 44.3195 210.239 44.3733 210.23C44.4271 210.22 44.4825 210.231 44.5292 210.259C44.5759 210.288 44.6108 210.332 44.6273 210.384C44.6439 210.436 44.641 210.492 44.6192 210.542C44.4749 210.9 44.7823 210.749 44.9141 210.793C45.0458 210.837 45.0207 210.837 45.0333 210.869C45.0113 210.948 44.9775 211.025 44.9329 211.094C44.8359 211.275 44.727 211.449 44.6067 211.615C44.2507 212.125 43.8519 212.603 43.4147 213.046C42.6978 213.781 41.9026 214.435 41.0433 214.997C41.0433 214.997 40.5916 215.26 39.9517 215.624C39.3118 215.988 38.4272 216.377 37.5112 216.747C36.1252 217.292 34.7015 217.737 33.2515 218.077C32.8136 218.154 32.3716 218.207 31.9277 218.234C31.8274 218.234 30.3092 218.491 28.7533 218.573C27.6762 218.617 26.5973 218.598 25.5224 218.516C24.8951 218.435 24.2677 218.34 23.6403 218.24C23.0281 218.113 22.4294 217.928 21.8524 217.688C21.6253 217.589 21.3902 217.509 21.1497 217.45C19.1011 216.828 17.1622 215.89 15.4031 214.67C14.964 214.35 14.5185 214.043 14.0731 213.736C13.6277 213.428 13.2262 213.064 12.8184 212.719C12.6681 212.594 12.5295 212.456 12.4043 212.305C12.2349 212.123 12.0781 211.935 11.9025 211.772C10.0909 209.997 8.48514 208.023 7.1157 205.887C6.77066 205.411 5.61632 202.901 5.34028 202.305C5.1458 201.954 4.91995 200.743 4.76311 200.461Z" fill="#221F1F"/>
<path d="M96.6155 198.818C96.0939 199.2 95.4778 199.432 94.8338 199.489C94.6016 199.526 94.2691 199.238 94.3883 199.006C94.6198 198.555 94.9275 198.147 95.298 197.801C95.5496 197.604 95.8184 197.43 96.101 197.281C96.6563 196.981 97.2407 196.74 97.8451 196.559C99.0221 196.224 100.231 196.013 101.452 195.932C102.919 195.838 104.391 195.902 105.844 196.12C107.305 196.316 108.753 196.603 110.179 196.979C111.66 197.368 112.99 197.92 114.276 198.316C114.847 198.491 115.405 198.68 115.938 198.818C116.78 199.117 117.694 199.145 118.552 198.899C119.41 198.652 120.17 198.144 120.725 197.444C120.948 197.213 121.136 196.951 121.283 196.666C121.34 196.547 121.572 196.195 121.867 195.681C122.162 195.166 122.494 194.495 122.839 193.799C123.466 192.375 124.138 190.825 124.326 190.486C125.169 188.667 126.268 186.977 127.588 185.467C127.775 185.239 127.997 185.042 128.247 184.884C128.824 184.583 129.313 184.181 129.872 183.861C130.649 183.428 131.5 183.143 132.381 183.021C132.799 182.978 133.221 182.991 133.636 183.058C134.006 183.102 133.824 183.397 133.705 183.441C133.347 183.56 133.655 183.661 133.705 183.774C133.717 183.812 133.717 183.854 133.705 183.893C133.705 183.893 133.41 183.968 133.009 184.1C132.515 184.239 132.037 184.43 131.584 184.671C130.866 185.061 130.214 185.563 129.652 186.157C129.411 186.388 129.187 186.636 128.981 186.898C128.516 187.484 128.108 188.115 127.764 188.78C127.176 189.962 126.65 191.175 126.189 192.412C126.035 192.79 125.859 193.159 125.662 193.516C125.612 193.598 125.104 194.934 124.407 196.27C124.085 196.898 123.725 197.506 123.328 198.09C122.751 198.946 122.026 199.694 121.189 200.298C120.901 200.491 120.599 200.663 120.286 200.813C119.963 200.952 119.627 201.055 119.282 201.12C119.012 201.164 118.749 201.258 118.473 201.296C117.364 201.479 116.228 201.426 115.141 201.139C114.159 200.888 113.193 200.575 112.249 200.204C111.781 200.028 111.317 199.865 110.856 199.715C110.411 199.564 109.966 199.439 109.508 199.313C109.345 199.269 109.188 199.2 109.018 199.15C108.813 199.077 108.603 199.014 108.391 198.962C106.195 198.423 103.939 198.163 101.678 198.19C101.427 198.19 100.687 198.19 99.9467 198.19C99.3621 198.205 98.7811 198.287 98.2152 198.435C97.6666 198.487 97.128 198.615 96.6155 198.818Z" fill="#221F1F"/>
<path d="M101.013 205.385C100.701 205.255 100.433 205.038 100.241 204.76C100.05 204.482 99.9429 204.154 99.9336 203.816C99.9336 203.591 100.247 203.189 100.442 203.246C100.823 203.338 101.198 203.455 101.565 203.597C101.684 203.597 102.506 204.124 103.484 204.576C103.961 204.826 104.501 205.021 104.965 205.203L106.144 205.636C107.261 205.975 108.346 206.357 109.469 206.614C110.601 206.897 111.756 207.071 112.92 207.135C113.497 207.192 114.074 207.135 114.651 207.135C115.229 207.135 115.806 207.072 116.37 206.978C116.935 206.884 117.387 206.84 117.895 206.771C119.639 206.534 121.303 205.89 122.751 204.889C123.01 204.742 123.246 204.558 123.453 204.343C123.598 204.143 124.645 203.34 125.636 202.405C126.628 201.47 127.569 200.416 127.807 200.19C128.98 199.08 130.066 197.838 131.176 196.589C131.313 196.393 131.48 196.219 131.672 196.075C132.107 195.777 132.487 195.405 132.795 194.977C133.271 194.399 133.802 193.87 134.382 193.396C134.535 193.276 134.699 193.171 134.871 193.082C135.059 193.001 135.254 192.932 135.436 192.863C135.768 192.737 135.768 193.133 135.706 193.22C135.505 193.496 135.8 193.471 135.894 193.572C135.929 193.602 135.955 193.641 135.969 193.685C135.857 193.848 135.731 194.001 135.593 194.143L135.21 194.644C135.072 194.833 134.934 195.059 134.79 195.272C134.225 196.15 133.654 197.154 133.535 197.311C133.497 197.355 132.594 198.565 131.653 199.902C130.712 201.238 129.583 202.543 129.35 202.819C129.109 203.102 128.837 203.359 128.541 203.584C128.472 203.641 127.606 204.607 126.659 205.466C126.176 205.912 125.643 206.326 125.248 206.652C124.852 206.978 124.526 207.167 124.488 207.198C124.038 207.501 123.571 207.777 123.089 208.026C122.616 208.297 122.104 208.493 121.571 208.609C121.356 208.663 121.146 208.737 120.944 208.829C119.221 209.488 117.399 209.853 115.555 209.908C115.084 209.908 114.62 209.965 114.156 209.958C113.689 209.973 113.222 209.963 112.757 209.927C112.587 209.927 112.424 209.87 112.261 209.852L111.634 209.745C109.47 209.452 107.349 208.901 105.316 208.101C104.798 207.867 104.293 207.603 103.804 207.311C103.177 206.934 102.55 206.545 102.305 206.407C102.076 206.248 101.865 206.063 101.678 205.855C101.481 205.666 101.257 205.507 101.013 205.385Z" fill="#221F1F"/>
<path d="M81.1293 49.5684C81.399 49.4115 81.6688 49.5684 81.9448 49.9071C81.9919 49.9879 82.0218 50.0775 82.0326 50.1704C82.0434 50.2632 82.0349 50.3573 82.0076 50.4467C81.8724 50.5726 81.7276 50.688 81.5747 50.7917C81.4806 50.8482 79.9561 51.2999 79.4479 51.4693C78.9531 51.6306 78.448 51.7585 77.936 51.852C76.9009 52.0653 75.8783 52.3037 74.8557 52.5483C74.6257 52.5982 74.3933 52.6359 74.1593 52.6613C73.3631 52.7447 72.5784 52.9151 71.8193 53.1694C71.6867 53.1931 71.5606 53.2444 71.4491 53.32C71.2609 53.458 69.2094 54.0854 68.9397 54.1544C68.2686 54.2808 67.6064 54.4505 66.9572 54.6625C66.8631 54.6939 66.7878 54.7629 66.6749 54.7378C66.4626 54.7133 66.2491 54.7717 66.0789 54.9009C65.828 55.0264 65.5833 55.1581 65.3512 55.2899C65.2204 55.3444 65.0863 55.3905 64.9497 55.4279C64.8242 55.4718 64.6799 55.2836 64.6987 55.2271C64.7176 55.1707 64.5795 55.0891 64.4917 55.0389C64.4619 55.0216 64.4345 55.0005 64.4102 54.9762C64.4524 54.8658 64.5071 54.7605 64.5733 54.6625C64.7114 54.4669 64.8645 54.2823 65.0312 54.1105C65.2924 53.8249 65.5874 53.5721 65.9095 53.3576C65.9095 53.3576 66.0789 53.2572 66.3111 53.138C66.5432 53.0188 66.8569 52.8557 67.1831 52.7052C67.8104 52.404 68.5005 52.1343 68.6385 52.0778C68.783 52.0202 68.9353 51.9843 69.0902 51.9712C69.1593 51.9712 71.1103 51.2121 71.1982 51.2058C71.6018 51.0619 72.0248 50.9795 72.4529 50.9611C72.5386 50.9623 72.6237 50.9474 72.7038 50.9172C73.4127 50.7274 74.1309 50.5745 74.8557 50.4592C75.2258 50.3902 75.5834 50.2898 75.9473 50.2083C76.0163 50.2083 76.0853 50.2083 76.1543 50.2083C76.2378 50.2145 76.3217 50.2145 76.4053 50.2083C77.271 50.0013 78.1493 49.9009 79.0025 49.6688C79.197 49.6123 80.182 49.5997 80.4078 49.537C80.5584 49.4555 81.0226 49.6311 81.1293 49.5684Z" fill="#221F1F"/>
<path d="M62.0844 57.1474C62.0648 57.1568 62.0434 57.1618 62.0217 57.1618C61.9999 57.1618 61.9785 57.1568 61.9589 57.1474C61.9236 57.1304 61.8933 57.1044 61.8711 57.0721C61.7735 56.947 61.6643 56.8315 61.5449 56.7271C61.4382 56.633 61.2563 56.313 61.3504 56.2189C61.4407 56.1205 61.5467 56.0378 61.6641 55.9742C61.7861 55.9143 61.9145 55.868 62.0468 55.8362C62.2065 55.8339 62.3661 55.8465 62.5236 55.8739C62.7974 55.9387 63.0628 56.0356 63.314 56.1624C63.7652 56.4026 64.1864 56.6953 64.5687 57.0345C65.0028 57.4257 65.3751 57.8805 65.6729 58.3833C66.2836 59.3583 66.7545 60.4142 67.0719 61.5201C67.1381 61.7709 67.1822 62.027 67.2036 62.2855C67.2823 63.1803 67.3011 64.0795 67.2601 64.9768C67.2381 65.1308 67.2381 65.2871 67.2601 65.4411C67.2438 65.9586 67.1266 66.4679 66.9151 66.9405C66.7117 67.4494 66.4302 67.9236 66.0807 68.3458C65.4957 68.9214 64.8195 69.3963 64.0794 69.751C63.9836 69.8132 63.8734 69.8499 63.7594 69.8577C63.5192 69.8696 63.2842 69.9315 63.0694 70.0396C62.7716 70.1605 62.4595 70.2427 62.1409 70.2843C61.9765 70.2911 61.812 70.2763 61.6515 70.2404C61.5009 70.2404 61.5135 69.9769 61.5511 69.9392C61.5888 69.9016 61.5511 69.751 61.4947 69.6632C61.4796 69.6336 61.469 69.6019 61.4633 69.5691C61.6966 69.3858 61.9418 69.2181 62.1973 69.0672L62.6867 68.7096C62.8247 68.6092 62.9188 68.5151 62.9564 68.4963L63.2701 68.3018C63.4899 68.1507 63.6995 67.9851 63.8975 67.8062C64.201 67.5256 64.4536 67.1945 64.644 66.8275C64.7117 66.7273 64.785 66.6309 64.8636 66.539C64.9078 66.4532 64.9476 66.3653 64.9828 66.2755C65.033 66.1186 65.0957 65.9179 65.1459 65.7046C65.2337 65.2842 65.2463 64.8451 65.2588 64.8137C65.2588 64.6443 65.2588 64.4687 65.2902 64.293C65.2865 64.1098 65.3141 63.9274 65.3718 63.7535C65.3875 63.679 65.3875 63.6021 65.3718 63.5276C65.3026 62.8932 65.1894 62.2643 65.033 61.6456C64.9389 61.325 64.8193 61.0124 64.6754 60.7108C64.6542 60.6519 64.6394 60.5909 64.6315 60.5289C64.613 60.4536 64.5878 60.3801 64.5562 60.3093C64.2366 59.588 63.7999 58.9245 63.2638 58.3457C63.1509 58.2139 62.6678 57.5489 62.4985 57.505C62.3291 57.4611 62.1722 57.1098 62.0844 57.1474Z" fill="#221F1F"/>
<path d="M12.4601 62.7743C13.7725 64.9424 14.9176 67.2075 15.8855 69.5497C16.149 70.221 15.6659 70.4406 15.1139 69.7819C14.5618 69.1231 14.0285 68.5271 13.5266 67.812L12.7613 66.7894L12.0398 65.7229C10.2654 62.8978 8.80938 59.8848 7.69847 56.7391C6.85839 54.3382 6.25535 51.8609 5.89795 49.3425C5.82267 48.7152 5.75993 48.1568 5.69093 47.5922C5.62192 47.0276 5.63447 46.488 5.60938 45.9799C5.60938 45.7227 5.60938 45.478 5.60938 45.2333C5.60938 44.9886 5.60938 44.7628 5.60938 44.5432C5.60938 44.0978 5.60937 43.69 5.64074 43.3324C5.7769 40.5187 6.31347 37.7387 7.23423 35.0764C7.66652 33.7525 8.17769 32.4558 8.76499 31.193C9.06612 30.5657 9.33588 29.9383 9.65584 29.3109L10.7098 27.4853C10.8917 27.1779 11.0611 26.858 11.2493 26.5631L11.8767 25.6848C12.297 25.1014 12.6985 24.5054 13.1314 23.9408C14.0424 22.8299 15.0275 21.7819 16.08 20.804L16.8767 20.0637L17.2782 19.6998L17.7111 19.3799L19.4552 18.0812C20.0825 17.6797 20.7099 17.3347 21.3373 16.9583C21.6509 16.7826 21.9646 16.5818 22.2846 16.425L23.2695 15.9733L24.2607 15.5279C24.5849 15.3693 24.9204 15.2351 25.2645 15.1264L27.3223 14.4488C28.0061 14.2292 28.7213 14.1163 29.4176 13.9469L30.4716 13.7148C30.8292 13.6521 31.1805 13.6207 31.5381 13.5705C32.247 13.4827 32.9622 13.3886 33.6711 13.3133L35.8104 13.238C36.168 13.238 36.5256 13.2067 36.8832 13.238L37.9434 13.2882L40.0765 13.4011C41.3312 13.5768 42.5859 13.696 43.803 13.9407L45.6411 14.3359C46.2685 14.4676 46.8959 14.6057 47.4166 14.75C48.3476 14.9868 49.2957 15.1504 50.2522 15.2393C51.1198 15.311 51.993 15.2151 52.8244 14.957C53.735 14.6354 54.6183 14.241 55.4656 13.7776L58.2322 12.3221C61.896 10.44 65.5535 8.29443 69.6125 6.7825C70.9823 6.29124 72.3769 5.87242 73.7907 5.52778C74.073 5.45877 74.6753 5.35212 75.5348 5.19528C75.9614 5.11373 76.4507 5.07608 76.9965 5.0008C77.5423 4.92552 78.132 4.86278 78.7719 4.83141C81.7752 4.61618 84.7922 4.69182 87.7808 5.05726C90.8382 5.41952 93.8441 6.13098 96.7395 7.17773C97.3669 7.42868 97.9628 7.62316 98.4898 7.88038L99.9328 8.5642C100.786 8.9908 101.382 9.38604 101.721 9.57424C102.136 9.81925 102.536 10.0895 102.919 10.3835C103.308 10.6721 103.709 10.9419 104.086 11.2493L105.177 12.2154C105.359 12.3848 105.548 12.5354 105.717 12.711L106.213 13.2568C107.575 14.6783 108.673 16.3311 109.456 18.1377C110.959 21.6853 111.558 25.5502 111.2 29.3862C111.149 30.4586 110.996 31.5237 110.742 32.5669C110.178 34.7997 109.442 36.9853 108.54 39.104C107.222 42.0644 105.261 44.6941 102.8 46.8017C101.572 47.8021 100.193 48.6024 98.7157 49.1731C97.392 49.6813 97.9754 49.0602 98.3895 48.8281C99.6128 48.1443 98.5149 48.4956 98.3456 48.4203C98.2891 48.4203 98.2138 48.3638 98.2577 48.3074C98.3016 48.2509 98.5338 48.1756 98.9478 47.9059L99.6944 47.4479C99.9641 47.2471 100.278 47.0276 100.617 46.7892C102.231 45.5142 103.63 43.9868 104.757 42.2659C105.945 40.4575 106.878 38.4943 107.53 36.4315C107.915 35.2354 108.223 34.0158 108.452 32.7802C108.724 31.4009 108.88 30.0012 108.917 28.5958C109.032 25.6115 108.519 22.6364 107.411 19.8629C106.807 18.3831 105.959 17.0153 104.901 15.8165L104.105 14.9758C103.973 14.8378 103.854 14.6935 103.709 14.568L103.283 14.2104L102.455 13.5078C102.191 13.2757 101.878 13.1063 101.608 12.8804C100.097 11.8425 98.4747 10.9776 96.7709 10.302C96.0682 10.0636 95.3907 9.75618 94.6755 9.53033C93.9603 9.30448 93.2639 9.02844 92.5362 8.85278C92.3605 8.81514 91.0117 8.445 89.023 8.13759C86.6246 7.7797 84.2019 7.6098 81.777 7.62943C79.358 7.64649 76.9454 7.88166 74.5686 8.33208C73.41 8.56382 72.2695 8.87831 71.1558 9.27311C67.2348 10.5968 63.5397 12.8177 59.6061 14.6747C58.8345 15.0323 58.0754 15.4526 57.31 15.8667C56.5446 16.2807 55.6412 16.7701 54.7065 17.1778C53.7144 17.6281 52.6543 17.9101 51.5697 18.0122C50.5214 18.0906 49.4674 18.0358 48.4329 17.8491C47.4542 17.6985 46.4881 17.4476 45.5972 17.2594C42.0934 16.3968 38.4889 16.0128 34.8819 16.1176C31.237 16.2306 27.6515 17.071 24.336 18.5894L23.4326 18.9784C23.144 19.1226 22.8617 19.2858 22.5794 19.4426C21.847 19.805 21.1443 20.2245 20.4778 20.6973C16.9835 23.261 14.1263 26.5947 12.1276 30.4402C11.6132 31.4001 11.1929 32.4101 10.7223 33.3951C10.2518 34.38 9.96324 35.4465 9.58055 36.4691C8.91431 38.5245 8.49316 40.6513 8.32583 42.8054C8.28819 43.0564 8.26937 43.4328 8.25055 43.8719C8.23173 44.3111 8.18781 44.8695 8.18154 45.4717C8.17527 46.074 8.18154 46.7264 8.21291 47.4416C8.24428 48.1568 8.33211 48.8595 8.40112 49.5872C8.47013 50.3149 8.60815 51.0427 8.72735 51.7453C8.84655 52.4479 9.02847 53.1067 9.16022 53.7278C9.50527 54.9386 9.78758 55.9423 10.0009 56.4819C10.1138 56.7893 10.2706 57.2786 10.4463 57.8558C10.622 58.4329 10.8792 59.1105 11.105 59.7379C11.4829 60.7813 11.9358 61.7961 12.4601 62.7743Z" fill="#221F1F"/>
<path d="M71.3285 46.2048C69.7977 45.6528 68.2733 45.1195 66.73 44.6553C66.1653 44.4922 65.5944 44.373 65.0298 44.2224C64.4652 44.0718 64.0386 43.9589 63.543 43.8334C63.0984 43.7163 62.6413 43.6532 62.1816 43.6452C61.2524 43.6463 60.3396 43.8907 59.5342 44.3541C58.8091 44.7867 58.205 45.3952 57.7776 46.1233C57.627 46.368 57.489 46.6064 57.351 46.8698C57.2027 47.1503 57.0393 47.4226 56.8616 47.6854C56.5055 48.1928 56.0836 48.6506 55.6069 49.0468C55.0109 49.5361 54.3522 47.6352 55.0987 46.6503C55.2618 46.4244 55.3936 46.2362 55.5379 46.0229C55.6822 45.8096 55.8641 45.4834 56.046 45.2136L56.3284 44.8184L56.6609 44.3918C56.8984 44.1177 57.1541 43.8599 57.4262 43.6201C58.5191 42.6693 59.8901 42.0972 61.3347 41.989C62.1744 41.9221 63.0193 41.9749 63.8441 42.1458C64.6032 42.2964 65.356 42.4532 66.0901 42.6477C67.6961 43.0932 69.2708 43.6139 70.8392 44.1471L73.7125 45.1446C75.1679 45.6465 76.6109 46.1735 78.0663 46.6126C79.1956 46.9514 80.3374 47.171 81.4729 47.4219C81.7238 47.4784 81.9748 47.5097 82.2257 47.5788C83.1479 47.8109 83.4052 48.0054 83.4804 48.5323C83.5013 48.6528 83.5159 48.7743 83.5244 48.8962C83.5244 49.2852 83.0538 49.4859 82.3386 49.4044C80.1699 49.0867 78.0359 48.5658 75.9647 47.8485C74.4026 47.3404 72.8279 46.7883 71.2909 46.2739L71.3285 46.2048Z" fill="#221F1F"/>
<path d="M80.0513 79.11C79.9888 78.6016 79.9888 78.0876 80.0513 77.5792C80.1002 77.1176 80.2012 76.663 80.3524 76.2241C80.3702 76.1612 80.4092 76.1065 80.4628 76.0692C80.5165 76.0318 80.5814 76.0143 80.6465 76.0194C80.7116 76.0246 80.7729 76.0522 80.82 76.0976C80.867 76.1429 80.8969 76.2031 80.9045 76.268C81.0752 76.8874 81.2113 77.5157 81.3123 78.1501C81.4316 79.4011 81.4756 80.658 81.444 81.9143C81.4085 83.6071 81.285 85.297 81.0739 86.977C80.818 89.0363 80.4134 91.0742 79.8631 93.075C78.7731 97.1597 77.2241 101.108 75.2457 104.844C74.7978 105.675 74.3057 106.481 73.7714 107.26C72.8604 108.612 71.8562 109.899 70.7664 111.112C69.663 112.386 68.36 113.473 66.9081 114.33C66.6537 114.479 66.3896 114.611 66.1177 114.725L65.7099 114.907L65.2707 115.064C63.5155 115.614 61.6721 115.827 59.8378 115.691C57.9403 115.563 56.078 115.116 54.3296 114.368C51.7315 113.165 49.3475 111.546 47.2718 109.575C46.9664 109.316 46.6831 109.033 46.4249 108.728C45.9104 108.037 45.2956 107.441 44.7122 106.802C43.9093 105.913 43.1553 104.981 42.4537 104.01C42.1256 103.529 41.8241 103.03 41.5503 102.517C41.3056 102.115 41.6256 102.14 41.7699 102.278C42.1463 102.655 41.9769 102.247 42.0208 102.147C42.0647 102.046 42.0585 102.071 42.0898 102.078C42.1212 102.084 42.4035 102.41 42.8364 102.899C43.2692 103.389 43.8464 104.035 44.4612 104.669C45.716 105.923 47.071 107.178 47.3345 107.41C47.3659 107.441 47.8364 107.881 48.5579 108.489C49.4412 109.234 50.3716 109.922 51.3434 110.547C52.3528 111.2 53.4146 111.769 54.5178 112.247C55.4714 112.649 56.2242 112.874 56.4752 112.95C57.0147 113.081 57.5354 113.27 58.0812 113.395C59.3809 113.646 60.7104 113.706 62.0273 113.571L62.7425 113.496L63.4263 113.364C63.8354 113.292 64.2398 113.196 64.6371 113.075L64.8943 113.006L65.0135 112.975H64.957H64.9947H65.0386L65.3774 112.824C65.4968 112.777 65.6122 112.721 65.7224 112.655C67.0294 111.895 68.2244 110.958 69.2733 109.869C69.4952 109.649 69.7047 109.417 69.9006 109.173C71.601 107.019 73.0727 104.693 74.2921 102.234C74.9195 100.98 75.4841 99.6622 75.9923 98.3448L76.2934 97.6359C76.4189 97.341 76.5443 97.0085 76.651 96.7387C77.8042 93.5789 78.6447 90.3135 79.1604 86.9896C79.2169 86.6069 79.4239 85.509 79.5745 84.3923C79.7251 83.2756 79.8317 82.1338 79.8443 81.6884C79.8443 81.4375 79.9195 80.9105 79.9886 80.3835C80.0394 79.961 80.0604 79.5354 80.0513 79.11Z" fill="#221F1F"/>
<path d="M84.3255 53.9523C84.7408 53.503 85.2663 53.17 85.85 52.9862C86.3343 52.8342 86.8445 52.783 87.3494 52.8356C88.1983 52.9354 88.9935 53.3023 89.6204 53.8833C89.7008 53.9798 89.7574 54.0939 89.7857 54.2164C89.814 54.3388 89.8131 54.4662 89.7832 54.5882C89.7533 54.7102 89.6952 54.8236 89.6135 54.9191C89.5319 55.0146 89.4289 55.0895 89.313 55.138C88.4964 55.2219 87.7061 55.474 86.9918 55.8783C86.721 55.9995 86.4903 56.1954 86.3268 56.4429C86.2041 56.6862 86.1396 56.9546 86.1385 57.2271C86.1338 57.706 86.2058 58.1825 86.3518 58.6387C86.7215 59.7809 87.3001 60.8446 88.0583 61.7755C88.6292 62.5067 89.3133 63.142 90.0846 63.6575C90.5347 63.9607 91.0273 64.1954 91.5464 64.3539C91.91 64.4668 92.2962 64.4862 92.6694 64.4104C93.0232 64.3187 93.3474 64.1372 93.6104 63.8834C94.0087 63.5204 94.3474 63.097 94.6142 62.6287C94.9539 62.066 95.2376 61.4714 95.4611 60.8532C95.5751 60.5636 95.6674 60.2658 95.7371 59.9624L95.8501 59.5295L95.894 59.1029C95.925 58.8364 95.9376 58.5681 95.9316 58.2999C95.9092 58.0548 95.8694 57.8116 95.8124 57.5722C95.7061 57.11 95.4911 56.6798 95.1851 56.3174C94.5156 55.504 93.5881 54.9439 92.5564 54.7302C91.9898 54.6085 91.4105 54.5559 90.8312 54.5734C90.2494 54.597 89.6734 54.6983 89.1185 54.8745C88.1448 55.1829 87.2485 55.6964 86.4899 56.3802C85.1143 57.7692 84.3239 59.6329 84.2816 61.5872C84.1905 62.5482 84.2947 63.5177 84.588 64.4373C84.8812 65.3569 85.3574 66.2078 85.988 66.9386C86.3862 67.4264 86.8904 67.8169 87.4623 68.0804C88.1016 68.4225 88.7717 68.704 89.4636 68.9211C90.0376 69.0752 90.6265 69.1677 91.2202 69.1971C91.8133 69.2089 92.4037 69.1154 92.9642 68.9211C93.3874 68.7924 93.7661 68.548 94.0577 68.2154C94.3493 67.8829 94.542 67.4754 94.6142 67.039C94.7291 66.3305 94.7291 65.6082 94.6142 64.8997C94.492 64.0142 94.2645 63.1465 93.9366 62.315C93.6365 61.5293 93.213 60.7965 92.6819 60.1443C92.1796 59.5447 91.541 59.074 90.8196 58.7717C90.0981 58.4693 89.3148 58.3442 88.5351 58.4065C88.0583 58.4567 87.5752 58.6073 87.0921 58.6261C85.9404 58.7404 84.8677 59.2635 84.0683 60.1004C82.8279 61.1911 81.861 62.5578 81.2452 64.0904C80.8875 64.8496 80.5917 65.6363 80.3606 66.443C80.1598 67.2021 79.6328 66.7881 79.5889 66.4806C79.4697 65.6212 79.1686 66.2799 78.9616 66.3615C78.88 66.3615 78.7734 66.4179 78.7169 66.3615C78.6302 65.7213 78.6429 65.0717 78.7545 64.4355C78.9437 62.9989 79.3922 61.6087 80.0783 60.3325C80.8304 58.9604 81.8301 57.7395 83.0269 56.7315C83.7487 56.1243 84.5509 55.6198 85.4108 55.2321C86.421 54.8005 87.4917 54.5275 88.5852 54.4228C89.8163 54.3073 91.0579 54.4472 92.2324 54.8336C93.4069 55.2201 94.489 55.8448 95.4109 56.6688C96.3758 57.5252 97.1827 58.5445 97.7949 59.6801C98.0778 60.1867 98.3333 60.7082 98.5603 61.2422C98.7485 61.7629 98.9618 62.2334 99.0935 62.729C99.5545 64.1041 99.7566 65.5527 99.6895 67.0014C99.6115 68.3461 99.1476 69.64 98.3532 70.7279C98.303 70.7906 98.0897 71.0855 97.7259 71.5309C97.5377 71.7442 97.2867 71.9763 97.0044 72.2398C96.6842 72.5044 96.3467 72.7475 95.9944 72.9675C95.1349 73.473 94.1981 73.8333 93.2214 74.0341C92.2024 74.2276 91.1608 74.2741 90.1286 74.1721C88.2374 73.9728 86.4172 73.3418 84.8085 72.3276C83.9973 71.8211 83.2551 71.2117 82.6003 70.5146C81.4611 69.2907 80.595 67.8387 80.0594 66.2548C79.5434 64.7215 79.393 63.0887 79.6203 61.4869C79.7269 60.8909 79.7332 60.2635 79.8461 59.6613C80.2103 56.8894 81.5438 54.3358 83.6103 52.4529C85.7638 50.5934 88.5471 49.6282 91.3895 49.7553C92.8272 49.802 94.2429 50.1214 95.5615 50.6963C96.9554 51.3082 98.1708 52.2646 99.0935 53.4755C99.4228 53.9341 99.6946 54.4313 99.9028 54.9561C100.022 55.2823 100.147 55.6148 100.242 55.9536L100.474 56.9699C100.746 58.6547 100.589 60.3811 100.016 61.9888C99.7708 62.7323 99.4644 63.4542 99.0998 64.1469C98.7334 64.8734 98.294 65.5607 97.7886 66.1983C97.2281 66.9058 96.559 67.5198 95.8061 68.0177C94.965 68.5555 94.0124 68.8945 93.0207 69.0089C92.057 69.1078 91.0832 69.0075 90.1599 68.714C89.3247 68.4468 88.5308 68.0647 87.801 67.5785C87.2384 67.2039 86.7206 66.7661 86.2577 66.2736C85.5702 65.5602 84.9603 64.7758 84.4384 63.9336C83.9077 63.082 83.4662 62.178 83.121 61.2359C82.8793 60.5685 82.6844 59.8852 82.5375 59.1907C82.392 58.2753 82.4629 57.3385 82.7445 56.4555C82.9186 55.9027 83.1768 55.3801 83.5099 54.9059C83.7579 54.5684 84.0305 54.2496 84.3255 53.9523Z" fill="#221F1F"/>
<path d="M64.5966 73.1566C64.3645 72.8681 64.4335 72.5293 64.6782 72.1152C64.7535 71.9835 65.0985 71.8455 65.1864 71.9208C65.3572 72.0583 65.5166 72.2093 65.6632 72.3725C65.751 72.4728 66.6732 74.2545 66.9994 74.8819C67.3059 75.4676 67.5823 76.0685 67.8275 76.6824L68.5804 78.508C68.8313 79.1354 69.0885 79.7627 69.3269 80.3901C69.4345 80.676 69.5204 80.9696 69.5841 81.2684C69.81 82.2973 70.1049 83.301 70.2993 84.4052C70.3203 84.5928 70.3603 84.7777 70.4185 84.9573C70.4706 85.1877 70.4938 85.4237 70.4875 85.6599C70.4989 86.1677 70.396 86.6716 70.1864 87.1342C70.0413 87.4498 69.8269 87.7286 69.559 87.9498C69.4254 88.0558 69.2802 88.1463 69.1262 88.2195C68.9819 88.2823 68.8439 88.3136 68.7121 88.3575C68.3791 88.4491 68.0299 88.4663 67.6895 88.4077C67.1257 88.2887 66.592 88.056 66.1211 87.7239C65.7097 87.4518 65.3252 87.1409 64.9731 86.7954C64.8596 86.7189 64.7669 86.6154 64.7033 86.4943C64.576 86.2329 64.3942 86.0019 64.17 85.8168C63.8993 85.5316 63.6517 85.2253 63.4297 84.9008C63.3315 84.7226 63.2557 84.533 63.2039 84.3362C63.1474 84.1668 63.3858 84.0978 63.4423 84.1229C63.6054 84.2107 63.6054 84.035 63.6681 83.966C63.6921 83.9394 63.7195 83.9162 63.7497 83.897C63.7497 83.897 64.1951 84.2295 64.6531 84.5244L65.682 85.227C65.8055 85.3332 65.9354 85.4316 66.0709 85.5219C66.3454 85.7235 66.6348 85.9039 66.9367 86.0614C67.2038 86.1976 67.489 86.2948 67.7836 86.35C67.8955 86.3721 68.0106 86.3721 68.1224 86.35C68.1726 86.3124 68.2479 86.35 68.2792 86.35L68.3169 86.2873C68.3703 86.1492 68.3979 86.0025 68.3984 85.8544C68.4027 85.4922 68.3691 85.1305 68.2981 84.7753C68.2014 84.303 68.1323 83.8254 68.091 83.345C68.0828 83.2444 68.0617 83.1453 68.0283 83.0501C67.7648 82.2345 67.5201 81.3876 67.2315 80.5407C67.081 80.1141 66.8928 79.7 66.7171 79.2859C66.6896 79.2062 66.6686 79.1244 66.6544 79.0413C66.623 78.9346 66.5979 78.828 66.5603 78.7213C66.1274 77.7238 65.7823 76.695 65.3056 75.7163C65.1926 75.4904 64.8915 74.3235 64.7598 74.0663C64.6657 73.8593 64.6907 73.2758 64.5966 73.1566Z" fill="#221F1F"/>
<path d="M16.3006 50.1328C16.539 50.3461 16.4198 50.666 16.0998 51.0675C15.9994 51.193 15.5979 51.3749 15.5038 51.3185C15.3271 51.2202 15.1592 51.1069 15.0019 50.9797C14.7998 50.6931 14.6134 50.3957 14.4436 50.0889C14.1989 49.6246 13.9103 49.1039 13.7786 48.8341C13.5271 48.3013 13.3376 47.7414 13.214 47.1654C12.9257 45.9723 12.7887 44.7477 12.8062 43.5204C12.8197 43.2441 12.8553 42.9692 12.9128 42.6986C13.032 42.2406 13.1449 41.7826 13.2453 41.3247C13.3457 40.8667 13.4586 40.4087 13.6155 39.9696C13.6817 39.8257 13.718 39.6699 13.7221 39.5116C13.7422 39.3254 13.7908 39.1434 13.8664 38.9721C13.9731 38.7149 14.1173 38.3949 14.2679 38.0749C14.5089 37.6046 14.7924 37.1573 15.1149 36.7387C15.6595 36.1519 16.2332 35.5929 16.8338 35.0636C16.9216 34.9946 16.9844 34.8942 17.1098 34.8754C17.3569 34.8167 17.5776 34.6777 17.7372 34.4802C17.9785 34.2445 18.2434 34.0343 18.5277 33.8528C18.6839 33.7743 18.8509 33.7193 19.0233 33.6897C19.1739 33.6521 19.2993 33.9156 19.2868 33.9657C19.2366 34.1289 19.406 34.1477 19.4938 34.223C19.5262 34.2494 19.5538 34.2812 19.5754 34.3171C19.4448 34.6144 19.2851 34.8981 19.0986 35.164C18.8414 35.5718 18.6155 36.0172 18.5402 36.0799L18.2642 36.4062L17.7309 37.1339C17.4445 37.5334 17.1866 37.9527 16.9593 38.3886C16.8901 38.5186 16.8012 38.6371 16.6958 38.7399C16.5312 39.0434 16.3927 39.3603 16.2817 39.6873C16.161 40.006 16.0563 40.3305 15.9681 40.6597C15.7924 41.0173 15.8112 41.4188 15.5415 41.7575C15.497 41.8242 15.4751 41.9033 15.4787 41.9834C15.3909 42.6547 15.2654 43.3259 15.2403 44.016C15.2375 44.3709 15.2627 44.7254 15.3156 45.0763C15.3218 45.1409 15.3218 45.2061 15.3156 45.2707C15.3093 45.3522 15.3093 45.434 15.3156 45.5154C15.4245 46.3738 15.6351 47.2162 15.943 48.0249C16.012 48.2131 16.1751 49.1792 16.2817 49.3925C16.2943 49.5368 16.2065 50.0449 16.3006 50.1328Z" fill="#221F1F"/>
<path d="M117.688 1.19823C124.903 10.6086 127.82 20.6463 127.814 32.4658C127.814 33.8836 131.628 35.2073 131.628 33.5762C131.628 21.2925 128.447 10.7968 120.963 1.00375C120.135 -0.0815816 116.296 -0.639933 117.701 1.19823H117.688Z" fill="#221F1F"/>
<path d="M135.987 24.5676C141.634 20.2137 147.907 14.8874 155.567 15.9728C157.242 16.2112 159.332 13.8586 156.872 13.5073C147.845 12.2212 140.392 17.8988 133.629 23.0807C131.671 24.5801 134.645 25.5902 135.987 24.5676Z" fill="#221F1F"/>
<path d="M80.674 77.215C80.674 77.215 87.6816 77.0017 89.0492 76.0419C90.4169 75.082 88.8297 80.8725 85.9124 84.4359C82.9952 87.9993 83.0078 91.1926 82.5874 93.1625C81.8848 96.4561 79.2812 93.8902 79.2812 93.8902C79.2812 93.8902 81.8722 82.4347 80.674 77.215Z" fill="#221F1F"/>
<path d="M0.165179 107.178C0.792538 111.569 2.11626 115.804 2.83772 120.17C3.55919 124.537 4.24301 130.453 0.460039 133.677C-0.945245 134.876 1.21914 135.867 2.27938 134.964C10.2594 128.157 4.16145 114.888 2.90673 106.444C2.71225 105.189 -0.0167519 105.848 0.177729 107.178H0.165179Z" fill="#221F1F"/>
<path d="M66.5608 98.1635C66.4023 98.6082 66.1424 99.0098 65.8017 99.3367C65.5258 99.5915 65.2127 99.8031 64.8733 99.964C64.615 100.124 64.3335 100.242 64.0389 100.315C63.4727 100.394 62.8966 100.281 62.4015 99.9954C61.9698 99.7391 61.628 99.3556 61.4228 98.8975C61.2463 98.545 61.1217 98.1689 61.0526 97.7808C60.9648 97.3103 60.946 96.6955 61.4353 96.4571C61.5859 96.3755 62.1442 96.777 62.69 97.1535C62.9482 97.3241 63.2163 97.4792 63.4931 97.6177L63.6499 97.693H63.6123H63.5495C63.4681 97.6657 63.38 97.6657 63.2986 97.693C63.2659 97.706 63.2391 97.7306 63.2233 97.762C63.1857 97.8122 63.2547 97.8185 63.148 97.5613C63.0916 97.4295 63.148 97.5048 63.148 97.4985C63.1772 97.4953 63.2067 97.4953 63.2358 97.4985H63.3362H63.4052C63.4641 97.521 63.5251 97.5378 63.5872 97.5487C63.624 97.5595 63.6632 97.5595 63.7001 97.5487C63.7001 97.5487 63.7001 97.5487 63.744 97.5487C63.7879 97.5487 63.7879 97.4609 63.7879 97.4734C63.8356 97.6564 63.9467 97.8165 64.1016 97.9251L64.2083 98.0255H64.2522C64.3024 98.082 64.0891 97.9879 63.2609 97.6365L62.6963 97.4044C62.069 97.1535 61.5796 96.8084 61.5545 96.4383C61.548 96.1434 61.6171 95.8519 61.7553 95.5913C61.9523 95.257 62.2335 94.9801 62.5708 94.7883C62.7656 94.6696 62.9771 94.5807 63.1982 94.5248C63.4356 94.4626 63.6807 94.4352 63.9259 94.4433C64.4212 94.4518 64.9048 94.5949 65.325 94.8573C65.8778 95.2047 66.3029 95.7223 66.536 96.3322C66.7691 96.9421 66.7976 97.6112 66.6173 98.2388L66.5608 98.1635Z" fill="#221F1F"/>
</svg>
