<svg width="40" height="40" viewBox="0 0 40 40" fill="none" xmlns="http://www.w3.org/2000/svg">
<path d="M10.4154 36.5988L19.9987 20M28.332 5.56626C21.1434 1.4159 12.1481 3.22939 7.07536 9.47158C6.58025 10.0808 6.33269 10.3855 6.26067 10.8219C6.20337 11.1692 6.28825 11.6294 6.46567 11.9334C6.68866 12.3155 7.08389 12.5436 7.87434 13L32.1231 27C32.9135 27.4564 33.3087 27.6846 33.7511 27.6867C34.1031 27.6883 34.5441 27.5317 34.8162 27.3085C35.1581 27.0279 35.2982 26.6611 35.5783 25.9277C38.4478 18.4135 35.5207 9.71662 28.332 5.56626ZM28.332 5.56626C25.1434 3.72531 18.8276 8.69514 14.2252 16.6667M28.332 5.56626C31.5206 7.40721 30.3746 15.3618 25.7722 23.3333M36.6654 36.6667H3.33203" stroke="#181D27" stroke-width="2" stroke-linecap="round" stroke-linejoin="round"/>
</svg>
