<svg width="40" height="40" viewBox="0 0 40 40" fill="none" xmlns="http://www.w3.org/2000/svg">
<path d="M13.3346 36.6668V33.3335M15.8346 25.0002V11.6668M26.668 36.6668V33.3335M24.168 25.0002V11.6668M14.668 33.3335H25.3346C28.1349 33.3335 29.535 33.3335 30.6046 32.7885C31.5454 32.3092 32.3103 31.5443 32.7897 30.6034C33.3346 29.5339 33.3346 28.1338 33.3346 25.3335V11.3335C33.3346 8.53323 33.3346 7.1331 32.7897 6.06354C32.3103 5.12273 31.5454 4.35783 30.6046 3.87846C29.535 3.3335 28.1349 3.3335 25.3346 3.3335H14.668C11.8677 3.3335 10.4676 3.3335 9.39802 3.87846C8.45721 4.35783 7.6923 5.12273 7.21294 6.06354C6.66797 7.1331 6.66797 8.53323 6.66797 11.3335V25.3335C6.66797 28.1338 6.66797 29.5339 7.21294 30.6034C7.6923 31.5443 8.45721 32.3092 9.39802 32.7885C10.4676 33.3335 11.8677 33.3335 14.668 33.3335Z" stroke="#181D27" stroke-width="2" stroke-linecap="round" stroke-linejoin="round"/>
</svg>
